<svg width="65" height="72" viewBox="0 0 65 72" fill="none" xmlns="http://www.w3.org/2000/svg">
<g id="Golf_illust" clip-path="url(#clip0_2_3935)">
<path id="Vector" d="M32.5 72.0026C50.4493 72.0026 65 65.209 65 56.8288C65 48.4486 50.4493 41.655 32.5 41.655C14.5507 41.655 0 48.4486 0 56.8288C0 65.209 14.5507 72.0026 32.5 72.0026Z" fill="#81BE57"/>
<path id="Vector_2" d="M51.1639 49.177H50.4736C50.2948 49.177 50.1499 49.3223 50.1499 49.5015V52.6504C50.1499 52.8296 50.2948 52.9749 50.4736 52.9749H51.1639C51.3427 52.9749 51.4876 52.8296 51.4876 52.6504V49.5015C51.4876 49.3223 51.3427 49.177 51.1639 49.177Z" fill="white"/>
<path id="Vector_3" d="M53.2678 48.8223C53.2678 48.9059 53.2349 48.9871 53.1768 49.0454L52.4712 49.7527C52.4131 49.8111 52.3322 49.844 52.2487 49.844H49.3912C49.3077 49.844 49.2268 49.8111 49.1686 49.7527L48.4631 49.0454C48.4049 48.9871 48.3721 48.9059 48.3721 48.8223C48.3721 48.6473 48.5137 48.5054 48.6882 48.5054H52.9593C53.1338 48.5054 53.2754 48.6473 53.2754 48.8223H53.2678Z" fill="white"/>
<path id="Vector_4" d="M50.9196 49.0653C53.9963 49.0653 56.4905 46.5647 56.4905 43.48C56.4905 40.3954 53.9963 37.8948 50.9196 37.8948C47.8428 37.8948 45.3486 40.3954 45.3486 43.48C45.3486 46.5647 47.8428 49.0653 50.9196 49.0653Z" fill="#DEDEDE"/>
<path id="Vector_5" d="M52.0629 41.728C52.3815 41.728 52.6395 41.9866 52.6395 42.3061C52.6395 42.6255 52.3815 42.8841 52.0629 42.8841C51.7443 42.8841 51.4863 42.6255 51.4863 42.3061C51.4863 41.9866 51.7443 41.728 52.0629 41.728Z" fill="white"/>
<path id="Vector_6" d="M53.2187 40.2805C53.5373 40.2805 53.7952 40.5391 53.7952 40.8586C53.7952 41.178 53.5373 41.4366 53.2187 41.4366C52.9 41.4366 52.6421 41.178 52.6421 40.8586C52.6421 40.5391 52.9 40.2805 53.2187 40.2805Z" fill="white"/>
<path id="Vector_7" d="M53.37 42.8994C53.6886 42.8994 53.9466 43.158 53.9466 43.4775C53.9466 43.7969 53.6886 44.0555 53.37 44.0555C53.0514 44.0555 52.7935 43.7969 52.7935 43.4775C52.7935 43.158 53.0514 42.8994 53.37 42.8994Z" fill="white"/>
<path id="Vector_8" d="M54.5258 41.4392C54.8444 41.4392 55.1023 41.6978 55.1023 42.0173C55.1023 42.3367 54.8444 42.5953 54.5258 42.5953C54.2072 42.5953 53.9492 42.3367 53.9492 42.0173C53.9492 41.6978 54.2072 41.4392 54.5258 41.4392Z" fill="white"/>
<path id="Vector_9" d="M22.8552 66.3869C28.1819 66.3869 32.5 64.4391 32.5 62.0364C32.5 59.6336 28.1819 57.6858 22.8552 57.6858C17.5286 57.6858 13.2104 59.6336 13.2104 62.0364C13.2104 64.4391 17.5286 66.3869 22.8552 66.3869Z" fill="#3C3C3B"/>
<path id="Vector_10" d="M22.8552 59.9828C27.2553 59.9828 30.9651 61.3138 32.1233 63.1291C32.366 62.7462 32.5 62.3431 32.5 61.9248C32.5 59.5213 28.1834 57.5742 22.8552 57.5742C17.5271 57.5742 13.2104 59.5213 13.2104 61.9248C13.2104 62.3431 13.3445 62.7462 13.5872 63.1291C14.7454 61.3113 18.4552 59.9828 22.8552 59.9828Z" fill="#508C1D"/>
<path id="Vector_11" d="M23.126 66.3868V1.47301C23.126 0.659178 23.7835 0 24.5952 0C25.4069 0 26.0644 0.659178 26.0644 1.47301V66.1409C26.0644 66.1409 25.1541 66.2804 24.7545 66.3133C24.5649 66.3285 24.2032 66.3539 23.8568 66.3666C23.48 66.3818 23.126 66.3868 23.126 66.3868Z" fill="#B5E1F4"/>
<path id="Vector_12" d="M34.9982 5.62076C34.7302 5.39005 34.7302 4.9768 34.9982 4.74608L37.5751 2.53277L39.3452 1.01158C39.7498 0.664249 39.5045 0 38.971 0H23.429C23.1129 0 22.855 0.258601 22.855 0.575513V9.90796C22.855 10.2249 23.1129 10.4835 23.429 10.4835H39.105C39.6386 10.4835 39.8838 9.81922 39.4792 9.47188L37.5725 7.83408L34.9957 5.62076H34.9982Z" fill="#F8697E"/>
<path id="Vector_13" d="M5.47555 55.0296L5.41342 55.0512C5.17323 55.1345 5.04594 55.3974 5.12911 55.6382L5.58753 56.9654C5.6707 57.2062 5.93284 57.3338 6.17303 57.2504L6.23516 57.2289C6.47535 57.1455 6.60264 56.8827 6.51947 56.6419L6.06105 55.3146C5.97788 55.0738 5.71574 54.9462 5.47555 55.0296Z" fill="#79B242"/>
<path id="Vector_14" d="M7.86193 54.7397H7.79618C7.54199 54.7397 7.33594 54.9463 7.33594 55.2012V56.6057C7.33594 56.8606 7.54199 57.0672 7.79618 57.0672H7.86193C8.11611 57.0672 8.32217 56.8606 8.32217 56.6057V55.2012C8.32217 54.9463 8.11611 54.7397 7.86193 54.7397Z" fill="#79B242"/>
<path id="Vector_15" d="M9.42631 57.2293L9.48844 57.2509C9.72863 57.3343 9.99076 57.2066 10.0739 56.9658L10.5324 55.6386C10.6155 55.3978 10.4882 55.135 10.248 55.0516L10.1859 55.03C9.94573 54.9466 9.68359 55.0742 9.60042 55.3151L9.142 56.6423C9.05883 56.8831 9.18612 57.1459 9.42631 57.2293Z" fill="#79B242"/>
<path id="Vector_16" d="M52.9505 62.769C52.8241 62.8222 52.6875 62.7411 52.6445 62.589L52.4321 61.8385C52.3891 61.6864 52.4548 61.5191 52.5813 61.4658C52.7077 61.4126 52.8443 61.4937 52.8873 61.6458L53.0997 62.3963C53.1427 62.5484 53.0769 62.7157 52.9505 62.769Z" fill="#60972C"/>
<path id="Vector_17" d="M53.9847 61.5292C53.9847 61.3962 53.877 61.2883 53.7443 61.2883C53.6115 61.2883 53.5039 61.3962 53.5039 61.5292V62.4267C53.5039 62.5597 53.6115 62.6675 53.7443 62.6675C53.877 62.6675 53.9847 62.5597 53.9847 62.4267V61.5292Z" fill="#60972C"/>
<path id="Vector_18" d="M54.5383 62.769C54.6648 62.8222 54.8013 62.7411 54.8443 62.589L55.0567 61.8385C55.0997 61.6864 55.034 61.5191 54.9075 61.4658C54.7811 61.4126 54.6445 61.4937 54.6015 61.6458L54.3891 62.3963C54.3461 62.5484 54.4119 62.7157 54.5383 62.769Z" fill="#60972C"/>
<path id="Vector_19" opacity="0.6" d="M15.9648 50.4537L15.9027 50.4752C15.6625 50.5586 15.5352 50.8214 15.6184 51.0622L16.0768 52.3895C16.16 52.6303 16.4221 52.7579 16.6623 52.6745L16.7244 52.6529C16.9646 52.5696 17.0919 52.3067 17.0087 52.0659L16.5503 50.7387C16.4671 50.4979 16.205 50.3703 15.9648 50.4537Z" fill="#60972C"/>
<path id="Vector_20" opacity="0.6" d="M18.3512 50.1636H18.2854C18.0313 50.1636 17.8252 50.3702 17.8252 50.625V52.0296C17.8252 52.2844 18.0313 52.491 18.2854 52.491H18.3512C18.6054 52.491 18.8114 52.2844 18.8114 52.0296V50.625C18.8114 50.3702 18.6054 50.1636 18.3512 50.1636Z" fill="#60972C"/>
<path id="Vector_21" opacity="0.6" d="M19.9151 52.6565L19.9772 52.6781C20.2174 52.7615 20.4795 52.6339 20.5627 52.3931L21.0211 51.0658C21.1043 50.825 20.977 50.5622 20.7368 50.4788L20.6747 50.4573C20.4345 50.3739 20.1724 50.5015 20.0892 50.7423L19.6308 52.0695C19.5476 52.3103 19.6749 52.5732 19.9151 52.6565Z" fill="#60972C"/>
<path id="Vector_22" d="M35.5821 64.7936L35.3001 64.8915C35.0599 64.9749 34.9327 65.2377 35.0158 65.4785L35.6555 67.3304C35.7386 67.5712 36.0008 67.6988 36.241 67.6154L36.5229 67.5176C36.7631 67.4342 36.8904 67.1714 36.8072 66.9305L36.1676 65.0786C36.0844 64.8378 35.8223 64.7102 35.5821 64.7936Z" fill="#AFE27F"/>
<path id="Vector_23" d="M38.5438 64.4702H38.2454C37.9912 64.4702 37.7852 64.6768 37.7852 64.9316V66.8914C37.7852 67.1463 37.9912 67.3529 38.2454 67.3529H38.5438C38.798 67.3529 39.004 67.1463 39.004 66.8914V64.9316C39.004 64.6768 38.798 64.4702 38.5438 64.4702Z" fill="#AFE27F"/>
<path id="Vector_24" d="M40.2685 67.518L40.5504 67.6159C40.7906 67.6992 41.0528 67.5716 41.1359 67.3308L41.7756 65.4789C41.8588 65.2381 41.7315 64.9753 41.4913 64.8919L41.2093 64.794C40.9691 64.7106 40.707 64.8383 40.6238 65.0791L39.9842 66.931C39.901 67.1718 40.0283 67.4346 40.2685 67.518Z" fill="#AFE27F"/>
<path id="Vector_25" d="M43.56 57.5891C43.4768 57.3483 43.2146 57.2207 42.9745 57.3041C42.7343 57.3875 42.607 57.6503 42.6901 57.8911L43.0997 59.077C43.1829 59.3178 43.4451 59.4454 43.6852 59.362C43.9254 59.2786 44.0527 59.0158 43.9695 58.775L43.56 57.5891Z" fill="#AFE27F"/>
<path id="Vector_26" d="M45.6651 57.4854C45.6651 57.2305 45.459 57.0239 45.2049 57.0239C44.9507 57.0239 44.7446 57.2305 44.7446 57.4854V58.7403C44.7446 58.9952 44.9507 59.2017 45.2049 59.2017C45.459 59.2017 45.6651 58.9952 45.6651 58.7403V57.4854Z" fill="#AFE27F"/>
<path id="Vector_27" d="M46.4405 58.7767C46.3573 59.0175 46.4846 59.2803 46.7248 59.3637C46.965 59.4471 47.2271 59.3194 47.3103 59.0786L47.7199 57.8927C47.803 57.6519 47.6758 57.3891 47.4356 57.3057C47.1954 57.2223 46.9332 57.35 46.8501 57.5908L46.4405 58.7767Z" fill="#AFE27F"/>
</g>
<defs>
<clipPath id="clip0_2_3935">
<rect width="65" height="72" fill="white"/>
</clipPath>
</defs>
</svg>
