<svg width="122" height="127" viewBox="0 0 122 127" fill="none" xmlns="http://www.w3.org/2000/svg">
<path d="M91.4964 81.4267H21.9991V12.9149C21.9991 9.98781 24.3563 7.62 27.2622 7.62H77.9736L91.4885 22.2949V81.4228H91.4925L91.4964 81.4267Z" fill="#FEFEFE"/>
<path d="M77.9736 7.62V19.2251C77.9736 20.8115 79.2568 22.1005 80.8322 22.1005H91.4925L77.9736 7.62Z" fill="#BAD8FA"/>
<path d="M74.6768 25.1505H40.6113C39.9677 25.1505 39.4465 25.8724 39.4465 26.7608C39.4465 27.6492 39.9677 28.3711 40.6113 28.3711H74.6768C75.3204 28.3711 75.8416 27.6492 75.8416 26.7608C75.8416 25.8724 75.3204 25.1505 74.6768 25.1505Z" fill="#8AACDD"/>
<path d="M74.6768 35.6649H40.6113C39.9677 35.6649 39.4465 36.3867 39.4465 37.2752C39.4465 38.1636 39.9677 38.8854 40.6113 38.8854H74.6768C75.3204 38.8854 75.8416 38.1636 75.8416 37.2752C75.8416 36.3867 75.3204 35.6649 74.6768 35.6649Z" fill="#8AACDD"/>
<path d="M97.0674 55.5078H47.189L40.8639 44.4659C39.9558 42.8794 38.2738 41.8998 36.4497 41.8998H16.5308C13.7196 41.8998 11.4375 44.1883 11.4375 47.0162V103.003C11.4375 105.771 13.6722 108.012 16.4242 108.012H97.0674C99.8232 108.012 102.054 105.767 102.054 103.003V60.5171C102.054 57.7487 99.8193 55.5078 97.0674 55.5078Z" fill="#F9C478"/>
<path d="M32.3395 41.8998C32.3395 41.8998 34.6531 42.9429 36.4141 44.5254C37.1919 45.2234 38.5461 47.6825 38.8541 48.2972C39.9596 50.5143 42.8616 55.5514 42.8616 55.5514L47.1849 55.5077L40.8598 44.4659C40.8598 44.4659 39.4779 41.9751 36.4456 41.8998C33.4134 41.8244 32.3355 41.8998 32.3355 41.8998H32.3395Z" fill="#EAB063"/>
<path d="M93.1035 55.4918C93.1035 55.4918 95.3579 56.6459 96.6095 58.0817C97.1465 58.6965 97.2886 59.5889 97.332 60.0965C97.486 61.798 97.6045 66.5892 97.6045 66.5892V85.1271L102.058 85.139V60.513C102.058 60.513 102.113 59.811 101.79 58.8868C101.501 58.0658 100.87 57.0664 100.112 56.5428C98.8877 55.6941 97.2965 55.3688 93.1035 55.4918Z" fill="#EAB063"/>
<path d="M92.3057 118.11C102.391 118.11 110.566 109.897 110.566 99.7666C110.566 89.6357 102.391 81.4229 92.3057 81.4229C82.2206 81.4229 74.045 89.6357 74.045 99.7666C74.045 109.897 82.2206 118.11 92.3057 118.11Z" fill="#FFE1E1"/>
<path d="M85.8614 108.149L100.647 93.2967C101.171 92.77 101.171 91.9162 100.647 91.3896L100.644 91.3868C100.12 90.8602 99.27 90.8602 98.7457 91.3868L83.9601 106.24C83.4359 106.766 83.4359 107.62 83.9601 108.147L83.9629 108.149C84.4872 108.676 85.3371 108.676 85.8614 108.149Z" fill="#EF2929"/>
<path d="M100.647 106.24L85.8611 91.3873C85.3368 90.8607 84.4869 90.8607 83.9626 91.3873L83.9598 91.3901C83.4356 91.9167 83.4356 92.7706 83.9598 93.2972L98.7454 108.15C99.2697 108.677 100.12 108.677 100.644 108.15L100.647 108.147C101.171 107.62 101.171 106.767 100.647 106.24Z" fill="#EF2929"/>
</svg>
