<svg width="90" height="90" viewBox="0 0 90 90" fill="none" xmlns="http://www.w3.org/2000/svg">
<g id="Navigation">
<g id="Ellipse 8" filter="url(#filter0_d_5_951)">
<circle cx="45" cy="41" r="35" fill="#009EB2"/>
</g>
<g id="Group 11149">
<path id="Vector" d="M55.9125 37.2417L47.5097 30.2486C46.0334 29.0281 43.9419 29.0281 42.4656 30.2486L34.0998 37.2539C33.337 37.8641 32.8818 38.7917 32.8695 39.7924V53.6323C32.8695 54.9381 33.9399 55.9999 35.2563 55.9999H41.9735V54.0228C41.9735 54.0228 41.9735 54.0106 41.9735 53.9984V47.6887C41.9735 46.5781 42.8839 45.6872 43.9912 45.6872H46.0088C47.1283 45.6872 48.0264 46.5903 48.0264 47.6887V50.8374V55.9999H54.7437C56.0601 55.9999 57.1304 54.9381 57.1304 53.6323V39.7802C57.1181 38.7795 56.6629 37.8519 55.9001 37.2417H55.9125Z" fill="#E7F7F9"/>
<path id="Vector_2" d="M59.876 38.2013L45.6305 26.2293C45.5681 26.1798 45.4932 26.1426 45.4183 26.1055C45.4058 26.1055 45.3808 26.0807 45.3683 26.0807C45.3309 26.0683 45.2809 26.056 45.2435 26.0436C44.9563 25.9569 44.6317 25.994 44.382 26.2045L30.1365 38.1765C29.3749 38.8079 29.2875 39.9346 29.9243 40.6774C30.561 41.4326 31.6971 41.5193 32.4462 40.8879L44.9938 30.352L57.5538 40.9126C58.3153 41.544 59.439 41.4574 60.0757 40.7022C60.7125 39.9469 60.6251 38.8327 59.8635 38.2013H59.876Z" fill="#01AFC7"/>
</g>
</g>
<defs>
<filter id="filter0_d_5_951" x="0" y="0" width="90" height="90" filterUnits="userSpaceOnUse" color-interpolation-filters="sRGB">
<feFlood flood-opacity="0" result="BackgroundImageFix"/>
<feColorMatrix in="SourceAlpha" type="matrix" values="0 0 0 0 0 0 0 0 0 0 0 0 0 0 0 0 0 0 127 0" result="hardAlpha"/>
<feOffset dy="4"/>
<feGaussianBlur stdDeviation="5"/>
<feComposite in2="hardAlpha" operator="out"/>
<feColorMatrix type="matrix" values="0 0 0 0 0.0711806 0 0 0 0 0.416667 0 0 0 0 0.354479 0 0 0 0.37 0"/>
<feBlend mode="normal" in2="BackgroundImageFix" result="effect1_dropShadow_5_951"/>
<feBlend mode="normal" in="SourceGraphic" in2="effect1_dropShadow_5_951" result="shape"/>
</filter>
</defs>
</svg>
