<svg width="25" height="39" viewBox="0 0 25 39" fill="none" xmlns="http://www.w3.org/2000/svg">
<g id="_&#235;&#160;&#136;&#236;&#157;&#180;&#236;&#150;&#180;_1" clip-path="url(#clip0_5_923)">
<path id="Vector" d="M25 2.21476L24.9666 36.7965C24.9666 38.7527 22.619 39.7195 21.2617 38.3479L14.0187 31.0179C13.1731 30.1635 11.7935 30.1635 10.9479 31.0179L3.69381 38.3367C2.33645 39.7083 0 38.7302 0 36.7852L0.0222519 2.19227C0.0222519 0.978092 1.00134 0 2.19181 0L22.8304 0.0224849C24.032 0.0224849 25 1.00058 25 2.21476Z" fill="#528FD8"/>
<g id="Clip path group">
<mask id="mask0_5_923" style="mask-type:luminance" maskUnits="userSpaceOnUse" x="5" y="8" width="15" height="15">
<g id="clippath">
<path id="Vector_2" d="M19.1811 8.79163H5.83V22.2825H19.1811V8.79163Z" fill="white"/>
</g>
</mask>
<g mask="url(#mask0_5_923)">
<g id="Group">
<g id="Group_2">
<path id="Vector_3" d="M12.5056 22.2825C16.1883 22.2825 19.1811 19.2583 19.1811 15.5371C19.1811 11.8158 16.1883 8.79163 12.5056 8.79163C8.82288 8.79163 5.83 11.8158 5.83 15.5371C5.83 19.2583 8.82288 22.2825 12.5056 22.2825Z" fill="white"/>
<path id="Vector_4" opacity="0.74" d="M12.5056 13.2886C13.1175 13.2886 13.6182 13.7832 13.6182 14.4128C13.6182 15.0424 13.1286 15.5371 12.5056 15.5371C11.8825 15.5371 11.393 15.0424 11.393 14.4128C11.393 13.7832 11.8825 13.2886 12.5056 13.2886Z" fill="#97B0BF"/>
<path id="Vector_5" opacity="0.74" d="M15.2537 11.6697C15.632 11.6697 15.9435 11.9845 15.9435 12.3667C15.9435 12.749 15.632 13.0637 15.2537 13.0637C14.8754 13.0637 14.5639 12.749 14.5639 12.3667C14.5639 11.9845 14.8754 11.6697 15.2537 11.6697Z" fill="#97B0BF"/>
<path id="Vector_6" opacity="0.74" d="M15.8434 14.4128C16.4553 14.4128 16.9559 14.9075 16.9559 15.5371C16.9559 16.1667 16.4664 16.6613 15.8434 16.6613C15.2203 16.6613 14.7308 16.1667 14.7308 15.5371C14.7308 14.9075 15.2203 14.4128 15.8434 14.4128Z" fill="#97B0BF"/>
</g>
</g>
</g>
</g>
</g>
<defs>
<clipPath id="clip0_5_923">
<rect width="25" height="39" fill="white"/>
</clipPath>
</defs>
</svg>
