<svg width="25" height="25" viewBox="0 0 25 25" fill="none" xmlns="http://www.w3.org/2000/svg">
<g id="Icon">
<path id="Vector" d="M19.417 5.6885C20.3731 6.68454 20.3607 8.27507 19.3805 9.25799L19.3805 9.258L9.66742 18.9957C9.66741 18.9957 9.66741 18.9957 9.66741 18.9957C9.55079 19.1127 9.40365 19.1993 9.24077 19.2427L19.417 5.6885ZM19.417 5.6885V5.68562L19.3805 5.64903C18.3526 4.61826 16.6765 4.61572 15.6482 5.64903L19.417 5.6885ZM6.07643 20.0918L9.24055 19.2428L15.6481 5.64913L6.00347 15.3204C5.88644 15.4378 5.80045 15.5875 5.75733 15.7478L5.75728 15.748L4.90816 18.9238L4.90813 18.9239C4.81964 19.256 4.91067 19.603 5.15457 19.8452C5.33684 20.0279 5.57593 20.125 5.82511 20.125C5.90804 20.125 5.99184 20.1149 6.07604 20.0919C6.07617 20.0919 6.0763 20.0919 6.07643 20.0918ZM8.81488 18.0082L6.31929 18.6817L6.98709 16.1765L14.1157 9.03047L15.9417 10.8616L8.81488 18.0082ZM18.4603 8.33614L16.8615 9.93927L15.0355 8.10815L16.5685 6.57088C16.8207 6.31798 17.1572 6.17856 17.5144 6.17856C17.8716 6.17856 18.2081 6.31798 18.4603 6.57088C18.9453 7.0573 18.9453 7.84972 18.4603 8.33614Z" fill="#009EB2" stroke="#009EB2" stroke-width="0.25"/>
</g>
</svg>
