<svg width="78" height="85" viewBox="0 0 78 85" fill="none" xmlns="http://www.w3.org/2000/svg">
<g clip-path="url(#clip0_5_779)">
<path d="M37.9487 31.1177L31.3977 15.1791C30.8616 13.8882 29.3956 13.2722 28.1055 13.8038C26.8238 14.3438 26.2122 15.8204 26.74 17.1198C26.74 17.1198 30.6521 25.2958 31.6239 27.7595C32.5956 30.2233 33.7182 34.6446 33.7182 34.6446L37.9487 31.1177Z" fill="#FED2A4"/>
<path d="M50.4809 20.4611V12.4455C50.4809 11.2811 49.727 10.3361 48.7971 10.3361C47.8673 10.3361 47.1133 11.2811 47.1133 12.4455V20.4611H50.4809Z" fill="#FED2A4"/>
<path d="M46.4347 20.672V6.32814C46.4347 5.16376 45.4965 4.21875 44.3405 4.21875C43.1844 4.21875 42.2462 5.16376 42.2462 6.32814V20.672H46.4347Z" fill="#FED2A4"/>
<path d="M41.6262 20.672V2.10939C41.6262 0.945007 40.688 0 39.5319 0C38.3759 0 37.4377 0.945007 37.4377 2.10939V20.672H41.6262Z" fill="#FED2A4"/>
<path d="M36.8177 20.672V6.32814C36.8177 5.16376 35.8795 4.21875 34.7234 4.21875C33.5674 4.21875 32.6292 5.16376 32.6292 6.32814V20.672H36.8177Z" fill="#FED2A4"/>
<path d="M50.4809 17.8032H33.0229V37.1252H50.4809V17.8032Z" fill="#FED2A4"/>
<path d="M49.7354 31.9025H33.7684C33.3567 31.9025 33.0229 32.2387 33.0229 32.6534V38.0619C33.0229 38.4766 33.3567 38.8128 33.7684 38.8128H49.7354C50.1471 38.8128 50.4809 38.4766 50.4809 38.0619V32.6534C50.4809 32.2387 50.1471 31.9025 49.7354 31.9025Z" fill="white"/>
<path d="M50.5144 37.7834H32.7297C32.2485 37.7834 31.8584 38.1763 31.8584 38.661V84.1141C31.8584 84.5987 32.2485 84.9916 32.7297 84.9916H50.5144C50.9956 84.9916 51.3857 84.5987 51.3857 84.1141V38.661C51.3857 38.1763 50.9956 37.7834 50.5144 37.7834Z" fill="#528FD8"/>
<path d="M48.638 36.0622C49.0266 36.0622 49.3416 35.7448 49.3416 35.3534C49.3416 34.962 49.0266 34.6447 48.638 34.6447C48.2493 34.6447 47.9343 34.962 47.9343 35.3534C47.9343 35.7448 48.2493 36.0622 48.638 36.0622Z" fill="#3E7784"/>
<path d="M46.0829 36.0622C46.4716 36.0622 46.7866 35.7448 46.7866 35.3534C46.7866 34.962 46.4716 34.6447 46.0829 34.6447C45.6943 34.6447 45.3792 34.962 45.3792 35.3534C45.3792 35.7448 45.6943 36.0622 46.0829 36.0622Z" fill="#3E7784"/>
<path d="M11.4014 52.3213L4.8504 36.3827C4.31426 35.0918 2.84825 34.4759 1.55817 35.0074C0.276458 35.5474 -0.335077 37.024 0.192686 38.3234C0.192686 38.3234 4.10483 46.4994 5.07659 48.9631C6.04834 51.4269 7.17088 55.8482 7.17088 55.8482L11.4014 52.3213Z" fill="#FED2A4"/>
<path d="M23.9252 41.6732V33.6575C23.9252 32.4931 23.1713 31.5481 22.2414 31.5481C21.3116 31.5481 20.5576 32.4931 20.5576 33.6575V41.6732H23.9252Z" fill="#FED2A4"/>
<path d="M19.8874 41.884V27.5402C19.8874 26.3758 18.9492 25.4308 17.7931 25.4308C16.6371 25.4308 15.6989 26.3758 15.6989 27.5402V41.884H19.8874Z" fill="#FED2A4"/>
<path d="M15.0789 41.8841V23.3214C15.0789 22.157 14.1407 21.212 12.9846 21.212C11.8286 21.212 10.8904 22.157 10.8904 23.3214V41.8841H15.0789Z" fill="#FED2A4"/>
<path d="M10.2704 41.884V27.5402C10.2704 26.3758 9.33218 25.4308 8.17613 25.4308C7.02008 25.4308 6.08183 26.3758 6.08183 27.5402V41.884H10.2704Z" fill="#FED2A4"/>
<path d="M23.9253 39.0153H6.46719V58.3373H23.9253V39.0153Z" fill="#FED2A4"/>
<path d="M23.1797 53.1061H7.21276C6.801 53.1061 6.46719 53.4423 6.46719 53.857V59.2655C6.46719 59.6802 6.801 60.0164 7.21276 60.0164H23.1797C23.5915 60.0164 23.9253 59.6802 23.9253 59.2655V53.857C23.9253 53.4423 23.5915 53.1061 23.1797 53.1061Z" fill="white"/>
<path d="M23.9671 58.7844H6.18237C5.7012 58.7844 5.31114 59.1773 5.31114 59.6619V84.1224C5.31114 84.6071 5.7012 84.9999 6.18237 84.9999H23.9671C24.4483 84.9999 24.8384 84.6071 24.8384 84.1224V59.6619C24.8384 59.1773 24.4483 58.7844 23.9671 58.7844Z" fill="#FFE177"/>
<path d="M22.0823 57.2742C22.4709 57.2742 22.786 56.9569 22.786 56.5654C22.786 56.174 22.4709 55.8567 22.0823 55.8567C21.6936 55.8567 21.3786 56.174 21.3786 56.5654C21.3786 56.9569 21.6936 57.2742 22.0823 57.2742Z" fill="#3E7784"/>
<path d="M19.5356 57.2742C19.9242 57.2742 20.2393 56.9569 20.2393 56.5654C20.2393 56.174 19.9242 55.8567 19.5356 55.8567C19.147 55.8567 18.8319 56.174 18.8319 56.5654C18.8319 56.9569 19.147 57.2742 19.5356 57.2742Z" fill="#3E7784"/>
<path d="M64.4373 65.2984L57.8864 49.3598C57.3502 48.0688 55.8842 47.4529 54.5941 47.9845C53.3124 48.5245 52.7009 50.0011 53.2287 51.3004C53.2287 51.3004 57.1408 59.4764 58.1126 61.9402C59.0843 64.404 60.2069 68.8253 60.2069 68.8253L64.4373 65.2984Z" fill="#FED2A4"/>
<path d="M76.9612 54.6417V46.626C76.9612 45.4616 76.2073 44.5166 75.2774 44.5166C74.3476 44.5166 73.5936 45.4616 73.5936 46.626V54.6417H76.9612Z" fill="#FED2A4"/>
<path d="M72.9234 54.8525V40.5087C72.9234 39.3443 71.9852 38.3993 70.8291 38.3993C69.6731 38.3993 68.7348 39.3443 68.7348 40.5087V54.8525H72.9234Z" fill="#FED2A4"/>
<path d="M68.1149 54.8526V36.2899C68.1149 35.1255 67.1767 34.1805 66.0206 34.1805C64.8646 34.1805 63.9263 35.1255 63.9263 36.2899V54.8526H68.1149Z" fill="#FED2A4"/>
<path d="M63.3064 54.8525V40.5087C63.3064 39.3443 62.3682 38.3993 61.2121 38.3993C60.0561 38.3993 59.1178 39.3443 59.1178 40.5087V54.8525H63.3064Z" fill="#FED2A4"/>
<path d="M76.9612 51.9838H59.5032V71.3058H76.9612V51.9838Z" fill="#FED2A4"/>
<path d="M76.2157 66.083H60.2487C59.837 66.083 59.5032 66.4192 59.5032 66.834V72.2424C59.5032 72.6572 59.837 72.9934 60.2487 72.9934H76.2157C76.6274 72.9934 76.9612 72.6572 76.9612 72.2424V66.834C76.9612 66.4192 76.6274 66.083 76.2157 66.083Z" fill="white"/>
<path d="M77.1288 71.829H59.344C58.8628 71.829 58.4728 72.2219 58.4728 72.7065V84.1225C58.4728 84.6071 58.8628 85 59.344 85H77.1288C77.6099 85 78 84.6071 78 84.1225V72.7065C78 72.2219 77.6099 71.829 77.1288 71.829Z" fill="#54D67B"/>
<path d="M75.1182 70.2427C75.5069 70.2427 75.8219 69.9254 75.8219 69.534C75.8219 69.1425 75.5069 68.8252 75.1182 68.8252C74.7296 68.8252 74.4146 69.1425 74.4146 69.534C74.4146 69.9254 74.7296 70.2427 75.1182 70.2427Z" fill="#3E7784"/>
<path d="M72.5716 70.2427C72.9602 70.2427 73.2752 69.9254 73.2752 69.534C73.2752 69.1425 72.9602 68.8252 72.5716 68.8252C72.1829 68.8252 71.8679 69.1425 71.8679 69.534C71.8679 69.9254 72.1829 70.2427 72.5716 70.2427Z" fill="#3E7784"/>
</g>
<defs>
<clipPath id="clip0_5_779">
<rect width="78" height="85" fill="white"/>
</clipPath>
</defs>
</svg>
