<svg width="15" height="15" viewBox="0 0 15 15" fill="none" xmlns="http://www.w3.org/2000/svg">
<g id="_&#235;&#160;&#136;&#236;&#157;&#180;&#236;&#150;&#180;_1" clip-path="url(#clip0_2327_2921)">
<path id="Vector" d="M14.9901 2.78157C14.9901 2.68295 14.9704 2.54488 14.9408 2.41668C14.7335 1.35159 14.0033 0.513323 12.9967 0.168155C12 -0.177013 10.9243 0.03995 10.1151 0.740147C9.64144 1.15435 9.18749 1.61786 8.75328 2.06165C8.56578 2.25888 8.36841 2.45612 8.17105 2.65336C5.80262 5.01036 3.44407 7.36737 1.08552 9.73423C0.986835 9.83285 0.907888 9.98078 0.878283 10.1188C0.720388 10.8388 0.562493 11.5686 0.404599 12.2885C0.266441 12.9098 0.138151 13.5212 -6.74836e-06 14.1425C-0.0592173 14.3891 0.00986167 14.6455 0.187493 14.8131C0.315783 14.9413 0.483546 15.0104 0.671046 15.0104C0.720388 15.0104 0.779598 15.0104 0.828941 14.9906H0.878283C2.22039 14.6948 3.55262 14.4088 4.88486 14.1129C5.02302 14.0833 5.16118 14.0044 5.25986 13.9157C6.4046 12.7816 7.53947 11.6376 8.67434 10.5035L11.852 7.32792C12.602 6.57841 13.352 5.8289 14.102 5.0794C14.6743 4.49754 14.9704 3.78748 14.9803 2.89005V2.79143L14.9901 2.78157ZM4.32236 12.8407C3.51315 13.0183 2.71381 13.1958 1.9046 13.3634L1.56907 13.4325L1.66776 12.9689C1.83552 12.18 2.00328 11.391 2.18091 10.6119C2.18091 10.5824 2.21052 10.5429 2.24999 10.5035C4.43091 8.31411 6.6217 6.13462 8.81249 3.94528L11.0724 6.20366L8.28947 8.98472C7.04605 10.2273 5.80262 11.4699 4.5592 12.7125C4.49012 12.7816 4.40131 12.8309 4.33223 12.8506L4.32236 12.8407ZM13.2237 4.02417C12.9474 4.31017 12.6513 4.5863 12.375 4.86243C12.2664 4.96105 12.1678 5.06954 12.0592 5.16815L9.82894 2.9295L10.1349 2.62378C10.4112 2.34764 10.6974 2.06165 10.9835 1.78551C11.5658 1.22338 12.5921 1.24311 13.1842 1.82496C13.7862 2.41668 13.8059 3.45218 13.2335 4.03403L13.2237 4.02417Z" fill="#009EB2"/>
</g>
<defs>
<clipPath id="clip0_2327_2921">
<rect width="15" height="15" fill="white"/>
</clipPath>
</defs>
</svg>
