<svg width="76" height="76" viewBox="0 0 76 76" fill="none" xmlns="http://www.w3.org/2000/svg">
<g id="Asset/Gameover">
<circle id="Ellipse 517" cx="38" cy="38" r="38" fill="#E6F7F9"/>
<g id="OBJECTS" clip-path="url(#clip0_1434_9549)">
<path id="Vector" d="M59.9315 21.3136C59.9315 21.3136 55.3935 20.5587 50.0991 18.6714C44.9144 16.8218 37.9977 11.4995 37.9977 11.4995C37.9977 11.4995 31.081 16.8218 25.8963 18.6714C20.6019 20.5587 16.0639 21.3136 16.0639 21.3136C16.0639 21.3136 14.9294 39.432 22.1146 49.6236C29.2998 59.8152 37.9977 64.4995 37.9977 64.4995C37.9977 64.4995 46.6956 59.8152 53.8808 49.6236C61.066 39.432 59.9315 21.3136 59.9315 21.3136Z" fill="#89BCE5"/>
<path id="Vector_2" d="M55.8818 24.3978C55.8818 24.3978 52.1833 23.7825 47.8646 22.2425C43.6367 20.7364 37.9982 16.3955 37.9982 16.3955C37.9982 16.3955 32.3597 20.7364 28.1317 22.2425C23.8168 23.7825 20.1145 24.3978 20.1145 24.3978C20.1145 24.3978 19.188 39.168 25.0459 47.4761C30.9037 55.7841 37.9944 59.6003 37.9944 59.6003C37.9944 59.6003 45.0851 55.7841 50.9429 47.4761C56.8007 39.168 55.8742 24.3978 55.8742 24.3978H55.8818Z" fill="#ABD0F5"/>
<path id="Vector_3" d="M52.8715 26.6855C52.8715 26.6855 49.7932 26.1721 46.2043 24.8925C42.6874 23.6393 37.9981 20.0308 37.9981 20.0308C37.9981 20.0308 33.3088 23.6393 29.7918 24.8925C26.203 26.1721 23.1247 26.6855 23.1247 26.6855C23.1247 26.6855 22.357 38.9682 27.2278 45.8796C32.0986 52.791 37.9981 55.9655 37.9981 55.9655C37.9981 55.9655 43.8937 52.791 48.7683 45.8796C53.6391 38.9682 52.8715 26.6855 52.8715 26.6855Z" fill="#FCFCFC"/>
<path id="Vector_4" d="M38.2702 46.6159C43.4499 46.6159 47.6488 42.4247 47.6488 37.2547C47.6488 32.0847 43.4499 27.8936 38.2702 27.8936C33.0905 27.8936 28.8916 32.0847 28.8916 37.2547C28.8916 42.4247 33.0905 46.6159 38.2702 46.6159Z" fill="#EFF1F2"/>
<path id="Vector_5" opacity="0.2" d="M38.2815 30.7695C38.6483 30.7506 38.9584 31.0299 38.9773 31.3961C38.9962 31.7622 38.7164 32.0717 38.3496 32.0906C37.9827 32.1095 37.6726 31.8301 37.6537 31.464C37.6348 31.0979 37.9147 30.7883 38.2815 30.7695Z" fill="#88A1B0"/>
<path id="Vector_6" opacity="0.2" d="M39.5183 29.0483C39.8851 29.0294 40.1952 29.3087 40.2141 29.6749C40.2331 30.041 39.9532 30.3505 39.5864 30.3694C39.2196 30.3883 38.9095 30.1089 38.8906 29.7428C38.8716 29.3767 39.1515 29.0671 39.5183 29.0483Z" fill="#88A1B0"/>
<path id="Vector_7" opacity="0.2" d="M39.8547 32.0263C40.2216 32.0074 40.5317 32.2867 40.5506 32.6529C40.5695 33.019 40.2896 33.3286 39.9228 33.3474C39.556 33.3663 39.2459 33.087 39.227 32.7208C39.2081 32.3547 39.4879 32.0452 39.8547 32.0263Z" fill="#88A1B0"/>
<path id="Vector_8" opacity="0.2" d="M41.0876 30.29C41.4545 30.2711 41.7646 30.5504 41.7835 30.9166C41.8024 31.2827 41.5225 31.5922 41.1557 31.6111C40.7889 31.63 40.4788 31.3506 40.4599 30.9845C40.441 30.6184 40.7208 30.3088 41.0876 30.29Z" fill="#88A1B0"/>
<path id="Vector_9" d="M36.5421 38.9417C38.0018 37.4809 39.4162 36.0654 40.8306 34.6537C41.3751 34.1101 41.9159 33.5628 42.468 33.023C43.0504 32.4531 43.7992 32.4229 44.3173 32.94C44.8202 33.4383 44.7824 34.2234 44.2152 34.7896C41.9915 37.0129 39.7679 39.2324 37.5405 41.4519C36.8825 42.1049 36.2169 42.1011 35.5551 41.4405C34.4697 40.3648 33.392 39.2852 32.3142 38.2057C31.7658 37.6546 31.7356 36.8807 32.2234 36.3863C32.7491 35.854 33.4789 35.8729 34.0689 36.4542C34.8895 37.2658 35.695 38.0886 36.5459 38.9455L36.5421 38.9417Z" fill="#466DBF"/>
</g>
</g>
<defs>
<clipPath id="clip0_1434_9549">
<rect width="44" height="53" fill="white" transform="translate(16 11.5)"/>
</clipPath>
</defs>
</svg>
