<svg width="23" height="22" viewBox="0 0 23 22" fill="none" xmlns="http://www.w3.org/2000/svg">
<path fill-rule="evenodd" clip-rule="evenodd" d="M11.5 2C6.52944 2 2.5 6.02944 2.5 11C2.5 15.9706 6.52944 20 11.5 20C16.4706 20 20.5 15.9706 20.5 11C20.5 6.02944 16.4706 2 11.5 2ZM0.5 11C0.5 4.92487 5.42487 0 11.5 0C17.5751 0 22.5 4.92487 22.5 11C22.5 17.0751 17.5751 22 11.5 22C5.42487 22 0.5 17.0751 0.5 11Z" fill="#009EB2"/>
<path fill-rule="evenodd" clip-rule="evenodd" d="M11.5 8.86621C12.0523 8.86621 12.5 9.31393 12.5 9.86621L12.5 14.8662C12.5 15.4185 12.0523 15.8662 11.5 15.8662C10.9477 15.8662 10.5 15.4185 10.5 14.8662L10.5 9.86621C10.5 9.31393 10.9477 8.86621 11.5 8.86621Z" fill="#009EB2"/>
<path fill-rule="evenodd" clip-rule="evenodd" d="M10.5 7C10.5 6.44772 10.9477 6 11.5 6H11.51C12.0623 6 12.51 6.44772 12.51 7C12.51 7.55228 12.0623 8 11.51 8H11.5C10.9477 8 10.5 7.55228 10.5 7Z" fill="#009EB2"/>
</svg>
