<svg width="75" height="96" viewBox="0 0 75 96" fill="none" xmlns="http://www.w3.org/2000/svg">
<path d="M37.3149 89.2161H36.1124C35.8011 89.2161 35.5486 89.4756 35.5486 89.7957V95.4203C35.5486 95.7405 35.8011 96 36.1124 96H37.3149C37.6263 96 37.8787 95.7405 37.8787 95.4203V89.7957C37.8787 89.4756 37.6263 89.2161 37.3149 89.2161Z" fill="#D6A356"/>
<path d="M40.9796 88.5866C40.9796 88.736 40.9223 88.881 40.821 88.9851L39.5921 90.2486C39.4908 90.3528 39.3499 90.4116 39.2045 90.4116H34.2273C34.0819 90.4116 33.941 90.3528 33.8396 90.2486L32.6107 88.9851C32.5094 88.881 32.4522 88.736 32.4522 88.5866C32.4522 88.2741 32.6988 88.0205 33.0028 88.0205H40.4422C40.7462 88.0205 40.9928 88.2741 40.9928 88.5866H40.9796Z" fill="#D6A356"/>
<path d="M36.7115 88.6861C40.9248 88.6861 44.3404 85.1744 44.3404 80.8425C44.3404 76.5106 40.9248 72.9989 36.7115 72.9989C32.4982 72.9989 29.0826 76.5106 29.0826 80.8425C29.0826 85.1744 32.4982 88.6861 36.7115 88.6861Z" fill="#FFDAA3"/>
<path opacity="0.74" d="M38.2751 78.3835C38.7112 78.3835 39.068 78.7458 39.068 79.1987C39.068 79.6516 38.7156 80.0139 38.2751 80.0139C37.8347 80.0139 37.4823 79.6516 37.4823 79.1987C37.4823 78.7458 37.8347 78.3835 38.2751 78.3835Z" fill="white"/>
<path opacity="0.74" d="M39.8564 76.3501C40.2925 76.3501 40.6492 76.7124 40.6492 77.1653C40.6492 77.6181 40.2969 77.9804 39.8564 77.9804C39.4159 77.9804 39.0636 77.6181 39.0636 77.1653C39.0636 76.7124 39.4159 76.3501 39.8564 76.3501Z" fill="white"/>
<path opacity="0.74" d="M40.0678 80.0273C40.5039 80.0273 40.8607 80.3896 40.8607 80.8425C40.8607 81.2954 40.5083 81.6577 40.0678 81.6577C39.6274 81.6577 39.275 81.2954 39.275 80.8425C39.275 80.3896 39.6274 80.0273 40.0678 80.0273Z" fill="white"/>
<path opacity="0.74" d="M41.6491 77.976C42.0852 77.976 42.4419 78.3382 42.4419 78.7911C42.4419 79.244 42.0896 79.6063 41.6491 79.6063C41.2086 79.6063 40.8563 79.244 40.8563 78.7911C40.8563 78.3382 41.2086 77.976 41.6491 77.976Z" fill="white"/>
<g clip-path="url(#clip0_5_813)">
<path d="M48.834 73.8472L49.6781 73.563C50.333 73.3424 50.6908 72.6152 50.4773 71.9387L31.4003 11.5101C31.1868 10.8336 30.4827 10.4641 29.8278 10.6846L28.9838 10.9689C28.3288 11.1895 27.9711 11.9167 28.1846 12.5932L47.2615 73.0218C47.4751 73.6983 48.1791 74.0678 48.834 73.8472Z" fill="#D7D7D7"/>
<path d="M54.4934 75.4811C54.4934 75.4811 64.2157 70.2492 64.3518 70.176C64.5425 70.0691 65.7026 69.3997 66.9717 68.8483C68.3061 68.2689 74.232 68.4489 74.9128 74.8173C75.5828 81.1126 72.2658 82.9972 71.1819 83.436C71.0022 83.5091 70.8115 83.5541 70.6209 83.5767L57.1133 85.1181C56.9934 85.1294 55.305 85.2644 55.1852 85.2588C54.3736 85.2138 51.7266 84.9325 50.4738 83.3685C49.0305 81.557 48.7418 79.993 48.6329 79.6442C48.5239 79.2954 45.8714 70.6486 45.5555 69.5966C45.4248 69.1746 45.6209 68.162 47.2168 67.6388C48.8126 67.1156 49.7276 67.6107 49.8638 68.0945C49.9455 68.3983 50.9695 71.5937 51.732 73.9566C52.1623 75.2955 53.2952 76.1281 54.5043 75.4755L54.4934 75.4811Z" fill="#A3D2EF"/>
<path d="M27.4148 0.803298L25.9355 1.25041C24.9597 1.54534 24.4001 2.6015 24.6856 3.60941L29.617 21.017C29.9026 22.0249 30.9251 22.6029 31.9009 22.308L33.3803 21.8609C34.3561 21.566 34.9157 20.5098 34.6301 19.5019L29.6987 2.09428C29.4132 1.08636 28.3907 0.508372 27.4148 0.803298Z" fill="#466DCE"/>
<path opacity="0.74" d="M59.0959 76.6175C58.829 75.993 59.5534 75.3461 62.9739 73.8102C66.3943 72.2744 67.8704 71.6724 68.4423 72.5838C69.0959 73.6358 67.7614 73.9621 67.3257 74.1196C64.9619 74.9973 63.0065 75.8355 60.8932 76.82C60.207 77.1407 59.3627 77.2476 59.1013 76.6175H59.0959Z" fill="white"/>
<path opacity="0.74" d="M60.3105 79.7567C60.0436 79.1322 60.768 78.4853 64.1884 76.9494C67.6253 75.4023 69.085 74.8116 69.6569 75.723C70.3105 76.775 68.976 77.1013 68.5403 77.2588C66.1765 78.1365 64.2211 78.9747 62.1078 79.9592C61.4216 80.2799 60.5773 80.3868 60.3159 79.7567H60.3105Z" fill="white"/>
<path d="M46.0209 10.2417L45.1768 9.95737C44.5219 9.7368 43.8178 10.1064 43.6043 10.7828L24.5274 71.2115C24.3138 71.8879 24.6716 72.6151 25.3265 72.8357L26.1706 73.12C26.8255 73.3405 27.5295 72.971 27.7431 72.2945L46.82 11.8659C47.0336 11.1894 46.6758 10.4622 46.0209 10.2417Z" fill="#D7D7D7"/>
<path d="M20.5065 74.7554C20.5065 74.7554 10.7843 69.5235 10.6481 69.4503C10.4575 69.3434 9.29734 68.674 8.02828 68.1226C6.69386 67.5432 0.767929 67.7232 0.0871016 74.0916C-0.582833 80.3868 2.73416 82.2715 3.81804 82.7103C3.99778 82.7834 4.18841 82.8284 4.37904 82.8509L17.8867 84.3924C18.0065 84.4037 19.6949 84.5387 19.8148 84.5331C20.6263 84.488 23.2734 84.2068 24.5261 82.6428C25.9695 80.8313 26.2581 79.2673 26.3671 78.9185C26.476 78.5697 29.1285 69.9229 29.4444 68.8709C29.5751 68.4489 29.379 67.4363 27.7832 66.9131C26.1873 66.3899 25.2723 66.885 25.1361 67.3688C25.0544 67.6726 24.0305 70.868 23.2679 73.2309C22.8376 74.5698 21.7047 75.4024 20.4956 74.7498L20.5065 74.7554Z" fill="#A3D2EF"/>
<path d="M41.6214 21.1386L43.1007 21.5857C44.0766 21.8807 45.0991 21.3027 45.3846 20.2948L50.316 2.88715C50.6016 1.87924 50.042 0.823078 49.0662 0.528153L47.5868 0.081037C46.611 -0.213889 45.5885 0.364104 45.3029 1.37202L40.3715 18.7796C40.086 19.7875 40.6456 20.8437 41.6214 21.1386Z" fill="#466DCE"/>
<path opacity="0.74" d="M15.9096 75.8918C16.1764 75.2674 15.452 74.6204 12.0316 73.0846C8.59475 71.5375 7.13505 70.9468 6.56316 71.8581C5.90956 72.9102 7.24399 73.2365 7.67972 73.394C10.0436 74.2716 11.9989 75.1098 14.1122 76.0944C14.7985 76.415 15.6427 76.5219 15.9041 75.8918H15.9096Z" fill="white"/>
<path opacity="0.74" d="M14.695 79.0309C14.9619 78.4065 14.2375 77.7595 10.817 76.2237C7.39652 74.6878 5.92048 74.0859 5.34859 74.9973C4.69499 76.0493 6.02942 76.3756 6.46515 76.5331C8.82898 77.4107 10.7843 78.249 12.8976 79.2335C13.5839 79.5541 14.4281 79.661 14.6895 79.0309H14.695Z" fill="white"/>
</g>
<defs>
<clipPath id="clip0_5_813">
<rect width="75" height="85.2588" fill="white"/>
</clipPath>
</defs>
</svg>
