<svg width="10" height="10" viewBox="0 0 10 10" fill="none" xmlns="http://www.w3.org/2000/svg">
<path d="M5.5 8C7.433 8 9 6.433 9 4.5C9 2.567 7.433 1 5.5 1C3.567 1 2 2.567 2 4.5C2 6.433 3.567 8 5.5 8Z" fill="#D9F3F6"/>
<path d="M7.51648 3.09616C7.32761 2.92446 7.03503 2.9382 6.86332 3.12776L5.23008 4.92583L4.08654 3.99039C3.88874 3.82899 3.59753 3.85784 3.43613 4.05564C3.27472 4.25344 3.30357 4.54465 3.50137 4.70605L4.98489 5.91965C5.17582 6.07624 5.45398 6.05358 5.61882 5.87364C5.62157 5.87089 5.625 5.86814 5.62775 5.86471L7.54876 3.74932C7.72047 3.56045 7.70673 3.26787 7.51717 3.09616H7.51648Z" fill="#3181AE"/>
</svg>
