<svg width="8" height="8" viewBox="0 0 8 8" fill="none" xmlns="http://www.w3.org/2000/svg">
<path d="M2.30127 7.99994C3.18531 7.99994 3.90254 7.69466 3.90254 7.31827C3.90254 6.94188 3.18631 6.6366 2.30127 6.6366C1.41622 6.6366 0.699997 6.94188 0.699997 7.31827C0.699997 7.69466 1.41622 7.99994 2.30127 7.99994Z" fill="#5E5E5E"/>
<path d="M2.30127 6.99587C3.03148 6.99587 3.64681 7.20445 3.83961 7.48887C3.87956 7.42914 3.90254 7.36562 3.90254 7.3002C3.90254 6.92381 3.18631 6.61853 2.30127 6.61853C1.41622 6.61853 0.699997 6.92381 0.699997 7.3002C0.699997 7.36562 0.721973 7.42914 0.762929 7.48887C0.954722 7.20445 1.57106 6.99587 2.30127 6.99587Z" fill="#508C1D"/>
<path d="M2.51196 7.99995V0.764127C2.51196 0.672949 2.70335 0.599609 2.9404 0.599609C3.17744 0.599609 3.36884 0.672949 3.36884 0.764127V7.9722C3.36884 7.9722 3.10369 7.98805 2.98605 7.99103C2.92986 7.99301 2.82451 7.99598 2.72442 7.99697C2.6138 7.99896 2.51196 7.99896 2.51196 7.99896V7.99995Z" fill="#80C3E0"/>
<path d="M5.76432 1.4423C5.69071 1.3833 5.69071 1.27773 5.76432 1.21718L6.46443 0.648956L6.94534 0.259272C7.05494 0.170778 6.98787 0 6.84392 0H2.62036C2.53367 0 2.46497 0.0667586 2.46497 0.14749V2.54148C2.46497 2.62222 2.5353 2.68897 2.62036 2.68897H6.88155C7.02713 2.68897 7.09256 2.5182 6.98296 2.4297L6.46443 2.00897L5.76432 1.44074V1.4423Z" fill="#F0455D"/>
</svg>
