<svg width="30" height="30" viewBox="0 0 30 30" fill="none" xmlns="http://www.w3.org/2000/svg">
<g clip-path="url(#clip0_1223_1227)">
<path d="M28.5938 0.9375H1.40625C1.28193 0.9375 1.1627 0.986886 1.07479 1.07479C0.986886 1.1627 0.9375 1.28193 0.9375 1.40625V28.5938C0.9375 28.7181 0.986886 28.8373 1.07479 28.9252C1.1627 29.0131 1.28193 29.0625 1.40625 29.0625H28.5938C28.7181 29.0625 28.8373 29.0131 28.9252 28.9252C29.0131 28.8373 29.0625 28.7181 29.0625 28.5938V1.40625C29.0625 1.28193 29.0131 1.1627 28.9252 1.07479C28.8373 0.986886 28.7181 0.9375 28.5938 0.9375ZM28.125 28.125H1.875V1.875H28.125V28.125Z" fill="black"/>
<path d="M2.8125 2.8125H3.75V5.15625H2.8125V2.8125ZM4.6875 5.625H5.625V4.21875H4.6875V5.15625H3.75V6.09375H4.6875V5.625ZM4.21875 2.8125H5.625V3.75H4.21875V2.8125Z" fill="black"/>
<path d="M4.6875 6.09375V7.03125H5.625V7.5H6.5625V6.09375H7.5V5.625H8.4375V4.6875H9.375V3.75H8.4375V2.8125H6.5625V4.21875H7.5V4.6875H6.5625V5.625H5.625V6.09375H4.6875Z" fill="black"/>
<path d="M10.3125 7.96875C10.3125 7.84443 10.2631 7.7252 10.1752 7.63729C10.0873 7.54939 9.96807 7.5 9.84375 7.5H8.4375V7.03125H9.375V5.625H8.4375V6.5625H7.5V7.5H7.03125C6.90693 7.5 6.7877 7.54939 6.69979 7.63729C6.61189 7.7252 6.5625 7.84443 6.5625 7.96875V10.7812C6.5625 10.9056 6.61189 11.0248 6.69979 11.1127C6.7877 11.2006 6.90693 11.25 7.03125 11.25H8.4375V12.1875H9.375V11.25H9.84375C9.96807 11.25 10.0873 11.2006 10.1752 11.1127C10.2631 11.0248 10.3125 10.9056 10.3125 10.7812V10.3125H11.25V9.375H10.3125V7.96875ZM9.375 10.3125H7.5V8.4375H9.375V10.3125Z" fill="black"/>
<path d="M7.96875 8.90625H8.90625V9.84375H7.96875V8.90625ZM5.625 8.4375H4.6875V7.5H3.75V6.09375H2.8125V8.4375H3.75V9.375H4.6875V9.84375H5.625V8.4375ZM2.8125 10.7812H3.75V12.6562H2.8125V10.7812ZM3.75 9.84375H4.6875V10.7812H3.75V9.84375ZM3.75 13.5938H2.8125V17.8125H3.75V16.4062H4.6875V15H3.75V13.5938ZM4.6875 12.6562H5.625V15H4.6875V12.6562Z" fill="black"/>
<path d="M6.5625 12.1875V10.7812H4.6875V11.7188H5.625V12.6562H6.5625V13.5938H7.5V12.1875H6.5625ZM6.5625 16.875V17.3438H7.5V16.4062H6.5625V15H5.625V16.875H6.5625ZM4.6875 18.75H5.625V20.625H6.5625V17.8125H5.625V16.875H4.6875V18.75ZM9.375 4.6875V5.625H10.3125V6.5625H11.25V7.03125H10.3125V7.96875H11.25V7.5H13.125V8.90625H14.0625V9.84375H15V8.4375H14.0625V5.625H13.125V6.5625H12.1875V6.09375H11.25V4.21875H12.1875V5.625H13.125V4.6875H14.0625V3.75H13.125V2.8125H11.25V3.75H10.3125V4.6875H9.375Z" fill="black"/>
<path d="M9.375 2.8125H10.3125V3.75H9.375V2.8125ZM10.3125 11.25V14.0625H11.25V12.6562H12.1875V11.25H10.3125ZM11.25 16.4062V15.4688H10.3125V16.875H11.25V18.75H12.1875V16.4062H11.25ZM13.125 19.2188H14.0625V17.8125H13.125V18.75H12.1875V19.6875H13.125V19.2188ZM12.6562 16.4062H14.0625V17.3438H12.6562V16.4062ZM21.5625 2.8125H22.5V3.75H21.5625V2.8125ZM17.8125 16.4062H18.75V17.3438H17.8125V16.4062ZM7.5 19.6875H8.4375V21.0938H7.5V19.6875ZM8.4375 16.4062H9.375V17.3438H8.4375V16.4062ZM7.5 17.8125H8.4375V19.2188H7.5V17.8125ZM9.375 14.5312V13.125H8.4375V13.5938H7.5V15H9.375V15.4688H10.3125V14.5312H9.375ZM9.375 17.8125H10.3125V20.1562H9.375V17.8125ZM20.625 13.125H21.5625V12.1875H20.625V10.7812H19.6875V12.6562H20.625V13.125ZM22.5 13.5938H21.5625V15H22.5V13.5938ZM12.1875 8.90625V7.96875H11.25V9.375H12.1875V11.25H13.125V8.90625H12.1875ZM12.1875 15H13.125V15.9375H14.0625V14.5312H13.125V13.125H12.1875V15ZM15.9375 12.1875H15V12.6562H14.0625V11.25H13.125V13.125H14.0625V13.5938H15.9375V12.6562H16.875V11.7188H15.9375V12.1875ZM15 14.0625H15.9375V15.4688H15V14.0625ZM16.875 10.7812V9.375H15.9375V9.84375H15V11.25H16.875V11.7188H17.8125V10.7812H16.875ZM16.875 14.0625H17.8125V16.4062H16.875V14.0625Z" fill="black"/>
<path d="M14.0625 4.6875V5.625H15V6.5625H15.9375V6.09375H16.875V5.15625H15.9375V4.6875H16.875V5.15625H17.8125V5.625H18.75V6.09375H17.8125V7.03125H18.75V6.5625H19.6875V5.625H20.625V5.15625H21.5625V5.625H20.625V6.5625H19.6875V8.4375H20.625V10.3125H21.5625V11.7188H22.5V10.7812H23.4375V12.1875H22.5V13.125H23.4375V15H22.5V15.9375H21.5625V16.875H22.5V17.8125H23.4375V18.75H25.3125V18.2812H26.25V18.75H27.1875V17.8125H26.25V16.875H25.3125V17.8125H24.375V17.3438H23.4375V15.9375H24.375V16.875H25.3125V15.9375H26.25V16.875H27.1875V15H25.3125V14.5312H26.25V14.0625H27.1875V12.6562H26.25V12.1875H25.3125V11.7188H26.25V11.25H27.1875V9.84375H25.3125V8.4375H26.25V7.03125H25.3125V4.6875H24.375V3.75H23.4375V6.09375H24.375V7.96875H23.4375V6.09375H22.5V8.4375H23.4375V8.90625H22.5V9.375H21.5625V8.4375H22.0312V7.5H20.625V7.03125H21.5625V6.09375H22.5V4.6875H21.5625V4.21875H20.625V3.75H19.6875V4.6875H18.75V3.75H19.6875V2.8125H18.75V3.28125H17.8125V4.21875H16.875V2.8125H15.9375V3.75H15V4.6875H14.0625ZM25.3125 14.0625H24.375V12.6562H25.3125V14.0625ZM23.4375 9.375H24.375V10.3125H25.3125V11.25H24.375V10.3125H23.4375V9.375Z" fill="black"/>
<path d="M21.5625 15.9375V15H20.625V14.0625H19.6875V12.6562H18.75V11.7188H17.8125V13.125H18.75V15H19.6875V16.875H20.625V15.9375H21.5625ZM14.0625 2.8125H15V3.75H14.0625V2.8125ZM15 7.03125V7.96875H15.9375V8.90625H16.875V9.375H17.8125V10.3125H18.75V10.7812H19.6875V8.4375H18.75V7.5H17.8125V7.96875H16.875V6.5625H15.9375V7.03125H15ZM26.25 2.8125H27.1875V5.15625H26.25V2.8125ZM26.25 5.625H27.1875V7.03125H26.25V5.625Z" fill="black"/>
<path d="M11.25 24.8438V25.3125H10.3125V27.1875H11.25V25.7812H12.1875V27.1875H13.125V23.9062H14.0625V25.7812H15V27.1875H15.9375V26.25H16.875V27.1875H17.8125V25.7812H18.75V27.1875H19.6875V26.7188H20.625V25.7812H21.5625V27.1875H22.5V26.7188H23.4375V25.7812H24.375V26.7188H23.4375V27.1875H25.3125V25.7812H25.7812C25.9056 25.7812 26.0248 25.7319 26.1127 25.644C26.2006 25.556 26.25 25.4368 26.25 25.3125V27.1875H27.1875V24.8438H26.25V23.9062H27.1875V22.9688H26.25V21.5625H27.1875V19.6875H26.25C26.25 19.5632 26.2006 19.444 26.1127 19.356C26.0248 19.2681 25.9056 19.2188 25.7812 19.2188H20.1562C20.0319 19.2188 19.9127 19.2681 19.8248 19.356C19.7369 19.444 19.6875 19.5632 19.6875 19.6875V18.75H20.625V18.2812H21.5625V16.875H20.625V17.8125H19.6875V17.3438H18.75V18.2812H17.8125V19.2188H18.75V20.1562H19.6875V20.625H18.75V20.1562H17.8125V19.2188H16.875V20.1562H15.9375V21.0938H16.875V20.625H17.8125V23.4375H16.875V21.5625H15.9375V23.9062H16.875V24.375H15.9375V24.8438H15V23.9062H15.4688V22.9688H14.0625V22.5H15V19.6875H15.9375V19.2188H16.875V18.2812H17.8125V17.3438H16.875V16.4062H15V17.8125H15.9375V18.2812H15V19.2188H14.0625V19.6875H13.125V20.625H14.0625V21.5625H13.125V21.0938H12.1875V19.6875H11.25V22.0312H12.1875V24.375H11.25V22.5H10.3125V24.8438H11.25ZM18.75 25.3125V23.9062H19.6875V25.3125H18.75ZM20.625 20.1562H25.3125V24.8438H20.625V20.1562ZM18.75 21.5625H19.6875V22.5H18.75V21.5625ZM6.5625 22.9688H7.5V22.0312H6.5625V21.0938H5.625V22.5H6.5625V22.9688Z" fill="black"/>
<path d="M3.75 22.9688H4.6875V25.7812H5.625V26.25H4.21875V27.1875H7.5V25.3125H8.4375V26.7188H9.375V24.8438H9.84375V23.9062H8.4375V23.4375H9.375V22.5H10.3125V21.5625H9.375V22.0312H8.4375V22.9688H7.5V24.375H6.5625V24.8438H5.625V23.9062H6.5625V22.9688H5.625V22.5H4.6875V21.5625H3.75V20.625H4.6875V19.2188H3.75V19.6875H2.8125V22.5H3.75V22.9688Z" fill="black"/>
<path d="M2.8125 23.4375H3.75V24.375H2.8125V23.4375ZM2.8125 24.8438H3.75V27.1875H2.8125V24.8438ZM21.5625 24.375H24.375C24.4993 24.375 24.6185 24.3256 24.7065 24.2377C24.7944 24.1498 24.8438 24.0306 24.8438 23.9062V21.0938C24.8438 20.9694 24.7944 20.8502 24.7065 20.7623C24.6185 20.6744 24.4993 20.625 24.375 20.625H21.5625C21.4382 20.625 21.319 20.6744 21.231 20.7623C21.1431 20.8502 21.0938 20.9694 21.0938 21.0938V23.9062C21.0938 24.0306 21.1431 24.1498 21.231 24.2377C21.319 24.3256 21.4382 24.375 21.5625 24.375ZM22.0312 21.5625H23.9062V23.4375H22.0312V21.5625Z" fill="black"/>
<path d="M22.5 22.0312H23.4375V22.9688H22.5V22.0312ZM24.375 2.8125H25.3125V3.75H24.375V2.8125Z" fill="black"/>
</g>
<defs>
<clipPath id="clip0_1223_1227">
<rect width="30" height="30" fill="white"/>
</clipPath>
</defs>
</svg>
