<svg width="37" height="42" viewBox="0 0 37 42" fill="none" xmlns="http://www.w3.org/2000/svg">
<g clip-path="url(#clip0_2_33263)">
<path d="M9.18612 40.8188L10.3197 22.5687C10.3197 22.1342 10.4833 21.6527 10.9157 21.6174H25.6986C26.283 21.6174 26.4816 22.0167 26.4933 22.4747L28.702 40.8306C28.7254 41.4295 28.3163 41.6409 27.7671 41.406L21.0242 37.2956C19.5751 36.3209 18.6052 36.2739 17.0392 37.2134L10.2963 41.3356C9.75874 41.6527 9.17444 41.5 9.16275 40.8776V40.8188H9.18612Z" fill="#3388E3"/>
<path d="M22.7187 21.6646H13.9775L13.4399 39.4449L17.1561 37.1901C17.9274 36.7321 18.4416 36.5207 19.0376 36.5324C19.6336 36.5442 20.4983 36.9787 21.3047 37.4602L22.9758 38.4584L24.2145 39.2101L22.7187 21.6646Z" fill="#E5EAF9"/>
<path d="M9.89913 12.6097C9.88738 12.6802 9.87564 12.7507 9.87564 12.8329C9.87564 12.7976 9.89913 12.7742 9.89913 12.7507V12.6097Z" fill="#282828"/>
<path opacity="0.25" d="M25.9207 25.5399H24.1794C23.9457 25.5399 23.7354 25.6691 23.6185 25.8688L22.4031 28.5816C21.9824 29.3098 21.2228 28.8283 20.4983 28.4172L19.2245 27.877C19.0258 27.7596 15.5083 27.8887 15.0876 27.1724L13.9307 25.399C13.8138 25.1994 10.2262 26.1859 10.2262 25.352C10.2262 25.352 10.1677 25.5634 10.1677 25.7983L10.0626 26.8318C10.0626 27.6539 9.87558 27.5364 10.7287 27.877C10.7287 27.877 11.1844 28.0766 11.4766 28.288C11.7687 28.4994 12.2479 29.0866 12.353 29.2863C12.353 29.2863 12.8088 29.897 13.2412 30.4372C13.8606 31.2005 15.9056 31.1183 16.6185 30.7073L18.0208 29.9087C18.2195 29.7913 18.4649 29.7913 18.6636 29.9087L20.1594 30.766C20.8722 31.1771 22.7537 31.0948 23.5133 30.261L24.9624 28.335C25.5934 27.6069 25.8155 27.419 26.5283 27.3485C27.2412 27.2781 26.8556 26.4795 26.9724 25.6574L27.2061 24.7883C26.9374 25.2111 26.4349 25.5399 25.909 25.5399H25.9207Z" fill="#282828"/>
<path d="M30.8057 15.5459L32.1146 13.2558C32.6288 12.3515 32.3249 11.1889 31.4251 10.6721L29.5553 9.57992C29.3099 9.439 29.158 9.16889 29.1463 8.87529V6.70265C29.1346 5.65743 28.2932 4.81187 27.2531 4.81187H25.0912C24.7991 4.81187 24.542 4.64745 24.39 4.40083L23.3032 2.52179C22.7774 1.61751 21.6321 1.31216 20.7323 1.8289L18.8508 2.90934C18.6054 3.05027 18.2899 3.05027 18.0445 2.90934L16.163 1.8289C15.2632 1.31216 14.1062 1.61751 13.592 2.52179L12.5052 4.40083C12.365 4.64745 12.0962 4.80012 11.8041 4.81187H9.64213C8.60207 4.82361 7.76066 5.66918 7.76066 6.71439V8.88703C7.76066 9.18063 7.59706 9.439 7.35165 9.59167L5.48186 10.6839C4.58203 11.2123 4.27819 12.3632 4.79238 13.2675L5.86751 15.1583C6.00774 15.4049 6.00774 15.722 5.86751 15.9686L4.79238 17.8594C4.27819 18.7637 4.58203 19.9264 5.48186 20.4431L7.35165 21.5353C7.59706 21.6762 7.74898 21.9463 7.76066 22.2399V24.4126C7.77235 25.4578 8.61375 26.3034 9.65382 26.3034H11.8158C12.1079 26.3034 12.365 26.4678 12.5169 26.7144L13.6037 28.5934C14.1296 29.4977 15.2749 29.8031 16.1747 29.2863L18.0562 28.2059C18.3016 28.065 18.6171 28.065 18.8625 28.2059L20.744 29.2863C21.6438 29.8031 22.8007 29.4977 23.3149 28.5934L24.4017 26.7144C24.542 26.4678 24.8107 26.3151 25.1029 26.3034H27.2648C28.3049 26.2916 29.1463 25.446 29.1463 24.4008V22.2282C29.1463 21.9346 29.3099 21.6762 29.5553 21.5236L31.4251 20.4314C32.3249 19.9029 32.6288 18.752 32.1146 17.8477L30.8057 15.5576" fill="#F4D08A"/>
<path d="M8.81223 15.5458C8.81223 10.2023 13.1127 5.86877 18.4299 5.86877C23.7471 5.86877 28.0476 10.2023 28.0476 15.5341C28.0476 20.8658 23.7354 25.1994 18.4299 25.1994C13.1244 25.1994 8.81223 20.8893 8.81223 15.5458Z" fill="#D8B36A"/>
<g clip-path="url(#clip1_2_33263)">
<path d="M18.4902 10C20.6476 10 21.8021 11.1752 21.8021 12.6275C21.8021 13.9024 20.6243 14.5676 20.5426 14.6341C20.426 14.7228 20.2278 14.8337 20.3444 14.8891C20.5077 14.9778 21.8371 15.4878 21.9887 17.1951C22.1403 18.9024 20.7526 20 18.6185 20C16.8342 20 15.4698 19.3237 15.0266 17.816C14.8867 17.3282 15.3182 16.8404 15.8546 16.8404H16.5077C16.8809 16.8404 17.1724 17.0843 17.324 17.4169C17.5106 17.8381 17.9071 18.1042 18.5368 18.1042C19.2832 18.1042 19.6797 17.6497 19.6797 17.0177C19.6797 16.153 18.3852 15.7871 17.8838 15.8093C17.4173 15.7761 17.4406 15.4767 17.4406 15.1774C17.4406 14.878 17.4406 14.5676 17.4406 14.4235C17.4406 14.2018 17.6039 13.9579 17.9771 13.9579C18.3502 13.9579 19.4814 13.7805 19.4814 12.8936C19.4814 12.2395 19.0733 11.8847 18.4319 11.8847C17.8838 11.8847 17.5806 12.1508 17.4406 12.5055C17.324 12.7938 17.1841 12.949 16.6826 12.949H15.8196C15.2365 12.9601 15.0266 12.4058 15.2132 11.8847C15.668 10.6652 16.8459 10 18.4902 10Z" fill="#FFF6E5"/>
</g>
<path d="M18.4299 5.86877C18.0442 5.86877 17.6586 5.90401 17.2846 5.93924C22.0643 6.50295 25.7688 10.5781 25.7688 15.5341C25.7688 20.49 22.0643 24.5652 17.2846 25.1289C17.6586 25.1759 18.0442 25.1994 18.4299 25.1994C23.7471 25.1994 28.0476 20.8658 28.0476 15.5341C28.0476 10.2023 23.7471 5.86877 18.4299 5.86877Z" fill="#B99859"/>
<path d="M30.9458 15.534L32.2546 13.2322C32.7688 12.3279 32.465 11.1652 31.5651 10.6485L29.6953 9.55629C29.4499 9.41536 29.298 9.14525 29.2863 8.85165V6.67902C29.2746 5.6338 28.4332 4.78824 27.3932 4.78824H25.2312C24.9391 4.78824 24.682 4.62382 24.5301 4.3772L23.4433 2.49816C22.9174 1.59387 21.7488 1.22981 20.8373 1.75829L20.6853 1.8405C20.9074 1.99317 21.1411 2.25154 21.2813 2.49816L22.3681 4.3772C22.5084 4.62382 22.7772 4.78824 23.0693 4.78824H25.2312C26.2713 4.79998 27.1127 5.64555 27.1127 6.69076V8.8634C27.1244 9.157 27.2763 9.41536 27.5217 9.56804L29.3915 10.6602C30.2913 11.1887 30.5952 12.3396 30.081 13.2439C30.081 13.2439 28.7721 15.4165 28.7721 15.5457C28.7721 15.6749 30.0693 17.8475 30.0693 17.8475C30.5835 18.7518 30.2797 19.9145 29.3798 20.4312L27.51 21.5234C27.2646 21.6643 27.101 21.9345 27.101 22.228V24.4007C27.0893 25.4459 26.2479 26.2915 25.2079 26.2915C25.2079 26.2915 24.9391 26.315 25.2196 26.315L27.3581 26.2915C28.3982 26.2915 29.2396 25.4459 29.2396 24.4007V22.228C29.2396 21.9345 29.4032 21.6761 29.6486 21.5234L31.5184 20.4312C32.4182 19.9027 32.7221 18.7518 32.2079 17.8475L30.899 15.5457L30.9458 15.534Z" fill="#D8B36A"/>
</g>
<defs>
<clipPath id="clip0_2_33263">
<rect width="28" height="40" fill="white" transform="translate(4.5 1.5)"/>
</clipPath>
<clipPath id="clip1_2_33263">
<rect width="7" height="10" fill="white" transform="translate(15 10)"/>
</clipPath>
</defs>
</svg>
