<svg width="37" height="45" viewBox="0 0 37 45" fill="none" xmlns="http://www.w3.org/2000/svg">
<path d="M0.123052 38.9802L8.03446 25.3395C8.22119 25.0218 8.6298 24.9068 8.9589 25.0802L18.1312 29.1901C18.477 29.3709 18.6027 29.7981 18.4086 30.1341L10.0165 44.6786C9.76317 45.1186 9.36936 45.0948 9.08093 44.6767L6.68477 39.7543C6.55719 39.5699 6.34827 39.4585 6.1227 39.4549L0.559391 39.7598C0.028759 39.7525 -0.143188 39.433 0.124901 38.9802H0.123052Z" fill="#F46556"/>
<path d="M36.8752 38.9802L28.9638 25.3395C28.7771 25.0218 28.3685 24.9068 28.0394 25.0802L18.867 29.1901C18.5213 29.3709 18.3955 29.7981 18.5897 30.1341L26.9818 44.6786C27.2351 45.1186 27.6289 45.0948 27.9173 44.6767L30.3135 39.7543C30.4411 39.5699 30.65 39.4585 30.8755 39.4549L36.4389 39.7598C36.9695 39.7525 37.1414 39.433 36.8734 38.9802H36.8752Z" fill="#F46556"/>
<g clip-path="url(#clip0_1596_5077)">
<path d="M33.1602 16.5L34.7046 13.793C35.3147 12.7243 34.95 11.3612 33.8876 10.7405L31.6713 9.44777C31.3769 9.27499 31.1956 8.96141 31.1935 8.62011L31.1807 6.05392C31.1743 4.82308 30.1781 3.82476 28.9451 3.81836L26.3789 3.80556C26.0376 3.80556 25.7219 3.62211 25.5513 3.32774L24.2586 1.11138C23.6378 0.0469347 22.2769 -0.317836 21.206 0.294381L18.9769 1.56575C18.6803 1.73426 18.3177 1.73426 18.0212 1.56575L15.792 0.294381C14.7233 -0.315703 13.3602 0.0490678 12.7395 1.11138L11.4468 3.32774C11.274 3.62211 10.9604 3.80343 10.6191 3.80556L8.05294 3.81836C6.8221 3.82476 5.82378 4.82095 5.81738 6.05392L5.80458 8.62011C5.80458 8.96141 5.62113 9.27712 5.32676 9.44777L3.1104 10.7405C2.04595 11.3612 1.68118 12.7222 2.2934 13.793L3.56476 16.0222C3.73328 16.3187 3.73328 16.6813 3.56476 16.9778L2.2934 19.207C1.68332 20.2757 2.04809 21.6388 3.1104 22.2595L5.32676 23.5522C5.62113 23.725 5.80245 24.0386 5.80458 24.3799L5.81738 26.9461C5.82378 28.1769 6.81997 29.1752 8.0508 29.1816L10.617 29.1944C10.9583 29.1944 11.274 29.3779 11.4447 29.6723L12.7374 31.8886C13.3581 32.9531 14.7191 33.3178 15.7899 32.7056L18.0191 31.4343C18.3156 31.2657 18.6782 31.2657 18.9747 31.4343L21.2039 32.7056C22.2726 33.3157 23.6357 32.9509 24.2564 31.8886L25.5491 29.6744C25.7219 29.38 26.0355 29.1987 26.3768 29.1966L28.943 29.1838C30.1738 29.1774 31.1721 28.1812 31.1764 26.9482L31.1892 24.382C31.1892 24.0407 31.3726 23.725 31.667 23.5544L33.8834 22.2617C34.9478 21.6409 35.3126 20.2778 34.7004 19.2091L33.156 16.5021" fill="#D8B36A"/>
<path d="M7.09941 16.5C7.09941 10.2029 12.2041 5.09827 18.5012 5.09827C24.7982 5.09827 29.9029 10.2029 29.9029 16.5C29.9029 22.7971 24.7982 27.9018 18.5012 27.9018C12.2041 27.9018 7.09941 22.7971 7.09941 16.5Z" fill="white"/>
<path d="M18.657 22.238C16.668 22.238 15.325 21.49 14.441 20.487L15.614 18.906C16.362 19.637 17.28 20.198 18.419 20.198C19.694 20.198 20.561 19.569 20.561 18.43C20.561 17.206 19.83 16.424 17.093 16.424V14.639C19.405 14.639 20.153 13.84 20.153 12.718C20.153 11.732 19.541 11.154 18.47 11.154C17.569 11.154 16.838 11.562 16.09 12.259L14.815 10.729C15.903 9.777 17.11 9.182 18.589 9.182C21.02 9.182 22.669 10.389 22.669 12.531C22.669 13.891 21.904 14.877 20.578 15.404V15.489C21.989 15.88 23.077 16.934 23.077 18.583C23.077 20.895 21.054 22.238 18.657 22.238Z" fill="#D8B36A"/>
</g>
<defs>
<clipPath id="clip0_1596_5077">
<rect width="33" height="33" fill="white" transform="translate(1.99902)"/>
</clipPath>
</defs>
</svg>
