<svg width="18" height="18" viewBox="0 0 18 18" fill="none" xmlns="http://www.w3.org/2000/svg">
<path d="M9.00028 18.0006C13.971 18.0006 18.0006 13.971 18.0006 9.00028C18.0006 4.02956 13.971 0 9.00028 0C4.02956 0 0 4.02956 0 9.00028C0 13.971 4.02956 18.0006 9.00028 18.0006Z" fill="#009EB2"/>
<path d="M7.41206 10.938L7.63612 10.7359C7.63612 10.7359 11.2183 7.11149 13.0666 5.26155C13.3424 4.98513 13.6616 4.88323 14.0405 5.00202C14.6041 5.17823 14.8304 5.92417 14.4588 6.38412C14.4149 6.43817 14.3693 6.49109 14.3198 6.54063C12.2508 8.61069 10.1802 10.6802 8.11183 12.7508C7.69805 13.1145 7.28933 13.1511 6.91326 12.8178C6.41334 12.3753 4.68669 10.7117 3.65476 9.6764C3.23253 9.25248 3.26631 8.64728 3.72513 8.29205C4.07981 8.01731 4.57804 8.06967 4.93159 8.42266C5.72989 9.21927 7.41149 10.938 7.41149 10.938H7.41206Z" fill="white"/>
</svg>
