<svg width="29" height="41" viewBox="0 0 29 41" fill="none" xmlns="http://www.w3.org/2000/svg">
<g id="_&#235;&#160;&#136;&#236;&#157;&#180;&#236;&#150;&#180;_1" clip-path="url(#clip0_641_6515)">
<path id="Vector" d="M5.18609 39.8188L6.31965 21.5687C6.31965 21.1342 6.48325 20.6527 6.91564 20.6174H21.6986C22.2829 20.6174 22.4816 21.0167 22.4933 21.4747L24.702 39.8306C24.7253 40.4295 24.3163 40.6409 23.7671 40.406L17.0242 36.2956C15.5751 35.3209 14.6051 35.2739 13.0392 36.2134L6.29628 40.3356C5.75871 40.6527 5.17441 40.5 5.16272 39.8776V39.8188H5.18609Z" fill="#3388E3"/>
<path id="Vector_2" d="M18.7187 20.6646H9.97744L9.43988 38.4449L13.1561 36.1901C13.9274 35.7321 14.4415 35.5207 15.0375 35.5324C15.6335 35.5442 16.4983 35.9787 17.3047 36.4602L18.9758 37.4584L20.2145 38.2101L18.7187 20.6646Z" fill="#E5EAF9"/>
<path id="Vector_3" d="M5.8991 11.6097C5.88735 11.6802 5.87561 11.7507 5.87561 11.8329C5.87561 11.7976 5.8991 11.7742 5.8991 11.7507V11.6097Z" fill="#282828"/>
<path id="Vector_4" opacity="0.25" d="M21.9207 24.5399H20.1795C19.9457 24.5399 19.7354 24.6691 19.6185 24.8688L18.4032 27.5816C17.9825 28.3098 17.2229 27.8283 16.4983 27.4172L15.2245 26.877C15.0259 26.7596 11.5083 26.8887 11.0876 26.1724L9.93071 24.399C9.81385 24.1994 6.2262 25.1859 6.2262 24.352C6.2262 24.352 6.16777 24.5634 6.16777 24.7983L6.06259 25.8318C6.06259 26.6539 5.87562 26.5364 6.7287 26.877C6.7287 26.877 7.18446 27.0766 7.47662 27.288C7.76877 27.4994 8.2479 28.0866 8.35308 28.2863C8.35308 28.2863 8.80884 28.897 9.24122 29.4372C9.86059 30.2005 11.9057 30.1183 12.6185 29.7073L14.0209 28.9087C14.2195 28.7913 14.4649 28.7913 14.6636 28.9087L16.1594 29.766C16.8723 30.1771 18.7537 30.0948 19.5133 29.261L20.9624 27.335C21.5935 26.6069 21.8155 26.419 22.5284 26.3485C23.2412 26.2781 22.8556 25.4795 22.9724 24.6574L23.2062 23.7883C22.9374 24.2111 22.4349 24.5399 21.909 24.5399H21.9207Z" fill="#282828"/>
<path id="Vector_5" d="M26.8057 14.5459L28.1146 12.2558C28.6288 11.3515 28.3249 10.1889 27.4251 9.67212L25.5553 8.57992C25.3099 8.439 25.158 8.16889 25.1463 7.87529V5.70265C25.1346 4.65743 24.2932 3.81187 23.2531 3.81187H21.0912C20.7991 3.81187 20.542 3.64745 20.39 3.40083L19.3032 1.52179C18.7774 0.617505 17.6321 0.312162 16.7323 0.828897L14.8508 1.90934C14.6054 2.05027 14.2899 2.05027 14.0445 1.90934L12.163 0.828897C11.2632 0.312162 10.1062 0.617505 9.59205 1.52179L8.50524 3.40083C8.365 3.64745 8.09622 3.80012 7.80407 3.81187H5.64213C4.60207 3.82361 3.76066 4.66918 3.76066 5.71439V7.88703C3.76066 8.18063 3.59706 8.439 3.35165 8.59167L1.48186 9.68386C0.582032 10.2123 0.278192 11.3632 0.792382 12.2675L1.86751 14.1583C2.00774 14.4049 2.00774 14.722 1.86751 14.9686L0.792382 16.8594C0.278192 17.7637 0.582032 18.9264 1.48186 19.4431L3.35165 20.5353C3.59706 20.6762 3.74898 20.9463 3.76066 21.2399V23.4126C3.77235 24.4578 4.61375 25.3034 5.65382 25.3034H7.81575C8.10791 25.3034 8.365 25.4678 8.51692 25.7144L9.60373 27.5934C10.1296 28.4977 11.2749 28.8031 12.1747 28.2863L14.0562 27.2059C14.3016 27.065 14.6171 27.065 14.8625 27.2059L16.744 28.2863C17.6438 28.8031 18.8007 28.4977 19.3149 27.5934L20.4017 25.7144C20.542 25.4678 20.8107 25.3151 21.1029 25.3034H23.2648C24.3049 25.2916 25.1463 24.446 25.1463 23.4008V21.2282C25.1463 20.9346 25.3099 20.6762 25.5553 20.5236L27.4251 19.4314C28.3249 18.9029 28.6288 17.752 28.1146 16.8477L26.8057 14.5576" fill="#FFE0A9"/>
<path id="Vector_6" d="M4.81226 14.5458C4.81226 9.2023 9.11276 4.86877 14.43 4.86877C19.7471 4.86877 24.0476 9.2023 24.0476 14.5341C24.0476 19.8658 19.7355 24.1994 14.43 24.1994C9.12444 24.1994 4.81226 19.8893 4.81226 14.5458Z" fill="#FDB440"/>
<path id="Vector_7" d="M14.4299 4.86877C14.0443 4.86877 13.6586 4.90401 13.2847 4.93924C18.0643 5.50295 21.7688 9.57811 21.7688 14.5341C21.7688 19.49 18.0643 23.5652 13.2847 24.1289C13.6586 24.1759 14.0443 24.1994 14.4299 24.1994C19.7471 24.1994 24.0476 19.8658 24.0476 14.5341C24.0476 9.2023 19.7471 4.86877 14.4299 4.86877Z" fill="#FE9901"/>
<path id="Vector_8" d="M12.1511 11.1517V10.177C12.1511 9.68372 12.5485 9.28442 13.0393 9.28442H14.7221C15.2129 9.28442 15.6102 9.68372 15.6102 10.177V18.9145C15.6102 19.4077 15.2129 19.807 14.7221 19.807H14.4299C13.9391 19.807 13.5418 19.4077 13.5418 18.9145V11.1517H12.1511Z" fill="#FFE0A9"/>
<path id="Vector_9" d="M26.9458 14.534L28.2546 12.2322C28.7688 11.3279 28.465 10.1652 27.5652 9.64848L25.6954 8.55629C25.45 8.41536 25.298 8.14525 25.2864 7.85165V5.67902C25.2747 4.6338 24.4333 3.78824 23.3932 3.78824H21.2313C20.9391 3.78824 20.682 3.62382 20.5301 3.3772L19.4433 1.49816C18.9174 0.593873 17.7488 0.229809 16.8373 0.758288L16.6854 0.840496C16.9074 0.993168 17.1411 1.25154 17.2814 1.49816L18.3682 3.3772C18.5084 3.62382 18.7772 3.78824 19.0693 3.78824H21.2313C22.2713 3.79998 23.1127 4.64555 23.1127 5.69076V7.8634C23.1244 8.157 23.2763 8.41536 23.5218 8.56804L25.3915 9.66023C26.2914 10.1887 26.5952 11.3396 26.081 12.2439C26.081 12.2439 24.7722 14.4165 24.7722 14.5457C24.7722 14.6749 26.0693 16.8475 26.0693 16.8475C26.5835 17.7518 26.2797 18.9145 25.3799 19.4312L23.5101 20.5234C23.2647 20.6643 23.1011 20.9345 23.1011 21.228V23.4007C23.0894 24.4459 22.248 25.2915 21.2079 25.2915C21.2079 25.2915 20.9391 25.315 21.2196 25.315L23.3582 25.2915C24.3982 25.2915 25.2396 24.4459 25.2396 23.4007V21.228C25.2396 20.9345 25.4032 20.6761 25.6486 20.5234L27.5184 19.4312C28.4183 18.9027 28.7221 17.7518 28.2079 16.8475L26.8991 14.5457L26.9458 14.534Z" fill="#FFCB78"/>
<path id="Vector_10" d="M7.02326 17.9686C7.02326 17.9686 7.72093 17.7173 8.06977 17.2565C8.4186 16.7958 8.5814 16 8.5814 16C8.5814 16 8.69767 16.9424 9.04651 17.4031C9.39535 17.8639 10 17.9476 10 17.9476C10 17.9476 9.62791 17.9895 9.11628 18.5759C8.69767 19.0576 8.55814 20 8.55814 20C8.55814 20 8.39535 19.0367 8.11628 18.6597C7.83721 18.2827 7 17.9686 7 17.9686H7.02326Z" fill="white"/>
<path id="Vector_11" d="M18 8.93671C18 8.93671 18.884 8.53165 19.326 7.79747C19.768 7.06329 20.0331 6 20.0331 6C20.0331 6 20.2762 7.21519 20.7182 7.97468C21.1602 8.73418 22 8.93671 22 8.93671C22 8.93671 21.4033 9.08861 20.7624 10.0253C20.232 10.8101 20.0331 12 20.0331 12C20.0331 12 19.8785 10.557 19.2597 9.79747C18.7514 9.18987 18.0221 8.91139 18.0221 8.91139L18 8.93671Z" fill="white"/>
</g>
<defs>
<clipPath id="clip0_641_6515">
<rect width="28" height="40" fill="white" transform="translate(0.5 0.5)"/>
</clipPath>
</defs>
</svg>
