<svg width="18" height="18" viewBox="0 0 18 18" fill="none" xmlns="http://www.w3.org/2000/svg">
<g clip-path="url(#clip0_5_1811)">
<path d="M9.00028 18.0006C13.971 18.0006 18.0006 13.971 18.0006 9.00028C18.0006 4.02956 13.971 0 9.00028 0C4.02956 0 0 4.02956 0 9.00028C0 13.971 4.02956 18.0006 9.00028 18.0006Z" fill="#4652C8"/>
<path d="M11.8313 12.8127H6.15597C5.89697 12.8127 5.68701 13.0227 5.68701 13.2817V13.284C5.68701 13.543 5.89697 13.7529 6.15597 13.7529H11.8313C12.0903 13.7529 12.3003 13.543 12.3003 13.284V13.2817C12.3003 13.0227 12.0903 12.8127 11.8313 12.8127Z" fill="#F6CD21"/>
<path d="M13.4747 8.20303C13.3368 7.97165 13.026 7.8264 12.6713 7.91366C12.0205 8.07354 11.2842 8.24469 11.2842 8.24469C11.2842 8.24469 9.64985 6.24444 9.50798 6.07217C9.3633 5.89652 9.2507 5.76929 9.01875 5.76929C8.78681 5.76929 8.62524 5.89708 8.48055 6.07217C8.33868 6.24444 6.70436 8.24469 6.70436 8.24469C6.70436 8.24469 5.96799 8.07411 5.31719 7.91366C4.96252 7.8264 4.65176 7.97165 4.51383 8.20303C4.39504 8.40232 4.44458 8.73166 4.51101 8.95404L5.44555 12.0735C5.51198 12.2947 5.71522 12.4462 5.94604 12.4462H12.0425C12.2733 12.4462 12.4765 12.2947 12.543 12.0735L13.4775 8.95404C13.5439 8.73166 13.5935 8.40232 13.4747 8.20303Z" fill="#F6CD21"/>
<path d="M8.99388 5.5239C9.34647 5.5239 9.6323 5.23807 9.6323 4.88548C9.6323 4.5329 9.34647 4.24707 8.99388 4.24707C8.6413 4.24707 8.35547 4.5329 8.35547 4.88548C8.35547 5.23807 8.6413 5.5239 8.99388 5.5239Z" fill="#EFA83D"/>
<path d="M14.1846 8.24362C14.5371 8.24362 14.823 7.9578 14.823 7.60521C14.823 7.25262 14.5371 6.9668 14.1846 6.9668C13.832 6.9668 13.5461 7.25262 13.5461 7.60521C13.5461 7.9578 13.832 8.24362 14.1846 8.24362Z" fill="#EFA83D"/>
<path d="M3.81517 8.24362C4.16776 8.24362 4.45359 7.9578 4.45359 7.60521C4.45359 7.25262 4.16776 6.9668 3.81517 6.9668C3.46259 6.9668 3.17676 7.25262 3.17676 7.60521C3.17676 7.9578 3.46259 8.24362 3.81517 8.24362Z" fill="#EFA83D"/>
<path d="M9.53438 9.24572C9.34635 9.13594 9.24952 8.85952 9.17577 8.6394C9.10258 8.41928 8.99393 8.13892 8.99393 8.13892C8.99393 8.13892 8.88527 8.41928 8.81209 8.6394C8.7389 8.85952 8.6415 9.13594 8.45347 9.24572C8.28289 9.34593 7.70359 9.56324 7.57129 9.60941C7.70359 9.65557 8.28233 9.87344 8.45347 9.97309C8.6415 10.0829 8.73834 10.3593 8.81209 10.5794C8.88527 10.7995 8.99393 11.0799 8.99393 11.0799C8.99393 11.0799 9.10258 10.7995 9.17577 10.5794C9.24895 10.3593 9.34635 10.0829 9.53438 9.97309C9.70496 9.87288 10.2843 9.65557 10.4166 9.60941C10.2843 9.56324 9.70553 9.34537 9.53438 9.24572Z" fill="white"/>
</g>
<defs>
<clipPath id="clip0_5_1811">
<rect width="18" height="18" fill="white"/>
</clipPath>
</defs>
</svg>
