<svg width="37" height="43" viewBox="0 0 37 43" fill="none" xmlns="http://www.w3.org/2000/svg">
<path d="M0.123052 36.9802L8.03446 23.3395C8.22119 23.0218 8.6298 22.9068 8.9589 23.0802L18.1312 27.1901C18.477 27.3709 18.6027 27.7981 18.4086 28.1341L10.0165 42.6786C9.76317 43.1186 9.36936 43.0948 9.08093 42.6767L6.68477 37.7543C6.55719 37.5699 6.34827 37.4585 6.1227 37.4549L0.559391 37.7598C0.028759 37.7525 -0.143188 37.433 0.124901 36.9802H0.123052Z" fill="#F46556"/>
<path d="M36.8752 36.9802L28.9638 23.3395C28.7771 23.0218 28.3685 22.9068 28.0394 23.0802L18.867 27.1901C18.5213 27.3709 18.3955 27.7981 18.5897 28.1341L26.9818 42.6786C27.2351 43.1186 27.6289 43.0948 27.9173 42.6767L30.3135 37.7543C30.4411 37.5699 30.65 37.4585 30.8755 37.4549L36.4389 37.7598C36.9695 37.7525 37.1414 37.433 36.8734 36.9802H36.8752Z" fill="#F46556"/>
<g clip-path="url(#clip0_1596_5078)">
<path d="M33.1602 16.5L34.7046 13.793C35.3147 12.7243 34.95 11.3612 33.8876 10.7405L31.6713 9.44777C31.3769 9.27499 31.1956 8.96141 31.1935 8.62011L31.1807 6.05392C31.1743 4.82308 30.1781 3.82476 28.9451 3.81836L26.3789 3.80556C26.0376 3.80556 25.7219 3.62211 25.5513 3.32774L24.2586 1.11138C23.6378 0.0469347 22.2768 -0.317836 21.206 0.294381L18.9768 1.56575C18.6803 1.73426 18.3177 1.73426 18.0212 1.56575L15.792 0.294381C14.7233 -0.315703 13.3602 0.0490678 12.7395 1.11138L11.4468 3.32774C11.274 3.62211 10.9604 3.80343 10.6191 3.80556L8.05293 3.81836C6.8221 3.82476 5.82378 4.82095 5.81738 6.05392L5.80458 8.62011C5.80458 8.96141 5.62113 9.27712 5.32675 9.44777L3.1104 10.7405C2.04595 11.3612 1.68118 12.7222 2.2934 13.793L3.56476 16.0222C3.73328 16.3187 3.73328 16.6813 3.56476 16.9778L2.2934 19.207C1.68331 20.2757 2.04808 21.6388 3.1104 22.2595L5.32675 23.5522C5.62113 23.725 5.80245 24.0386 5.80458 24.3799L5.81738 26.9461C5.82378 28.1769 6.81996 29.1752 8.0508 29.1816L10.617 29.1944C10.9583 29.1944 11.274 29.3779 11.4447 29.6723L12.7374 31.8886C13.3581 32.9531 14.7191 33.3178 15.7899 32.7056L18.0191 31.4343C18.3156 31.2657 18.6782 31.2657 18.9747 31.4343L21.2039 32.7056C22.2726 33.3157 23.6357 32.9509 24.2564 31.8886L25.5491 29.6744C25.7219 29.38 26.0355 29.1987 26.3768 29.1966L28.943 29.1838C30.1738 29.1774 31.1721 28.1812 31.1764 26.9482L31.1892 24.382C31.1892 24.0407 31.3726 23.725 31.667 23.5544L33.8834 22.2617C34.9478 21.6409 35.3126 20.2778 34.7004 19.2091L33.156 16.5021" fill="#9BAABE"/>
<path d="M7.09941 16.5C7.09941 10.2029 12.2041 5.09827 18.5012 5.09827C24.7982 5.09827 29.9029 10.2029 29.9029 16.5C29.9029 22.7971 24.7982 27.9018 18.5012 27.9018C12.2041 27.9018 7.09941 22.7971 7.09941 16.5Z" fill="white"/>
<path d="M14.73 22V20.555C18.147 17.495 20.17 15.132 20.17 13.194C20.17 11.919 19.49 11.154 18.283 11.154C17.365 11.154 16.617 11.749 15.971 12.446L14.611 11.086C15.767 9.845 16.889 9.182 18.606 9.182C20.986 9.182 22.567 10.712 22.567 13.058C22.567 15.336 20.68 17.784 18.385 20.028C19.014 19.96 19.847 19.892 20.442 19.892H23.162V22H14.73Z" fill="#9BAABE"/>
</g>
<defs>
<clipPath id="clip0_1596_5078">
<rect width="33" height="33" fill="white" transform="translate(1.99902)"/>
</clipPath>
</defs>
</svg>
