<svg width="24" height="24" viewBox="0 0 24 24" fill="none" xmlns="http://www.w3.org/2000/svg">
<g clip-path="url(#clip0_5_6991)">
<circle cx="12" cy="12.001" r="12" fill="#E6F7F9"/>
<path fill-rule="evenodd" clip-rule="evenodd" d="M10.2285 6.11526C9.46185 6.11526 8.83804 6.73907 8.83804 7.50574C8.83804 8.27241 9.46185 8.89621 10.2285 8.89621C10.9952 8.89621 11.619 8.27241 11.619 7.50574C11.619 6.73907 10.9952 6.11526 10.2285 6.11526ZM7.72852 7.50574C7.72852 6.12479 8.84756 5.00098 10.2285 5.00098C11.6095 5.00098 12.7285 6.12002 12.7285 7.50098C12.7285 8.88193 11.6095 10.001 10.2285 10.001C8.84756 10.001 7.72852 8.88193 7.72852 7.50098V7.50574Z" fill="#009EB2"/>
<path d="M14.8159 17.6109C14.5168 17.6109 14.2692 17.3555 14.2692 17.0361V14.3245C14.2692 13.6761 14.0216 13.0522 13.5871 12.5953C13.1526 12.1385 12.5593 11.8781 11.9426 11.8781H8.67219C7.99008 11.8781 7.336 12.163 6.85011 12.6739C6.36889 13.1799 6.09325 13.8726 6.09325 14.5898V17.0361C6.09325 17.3505 5.8503 17.6109 5.54662 17.6109C5.24762 17.6109 5 17.3555 5 17.0361V14.5898C5 13.568 5.38778 12.5855 6.07456 11.8634C6.76134 11.1413 7.69574 10.7335 8.66751 10.7335H11.9379C12.8443 10.7335 13.7133 11.1118 14.3533 11.7897C14.9934 12.4627 15.3531 13.3764 15.3578 14.3294V17.0411C15.3578 17.3555 15.1149 17.6158 14.8112 17.6158L14.8159 17.6109Z" fill="#009EB2"/>
<circle cx="16" cy="16.001" r="3.5" fill="#E6F7F9" stroke="#009EB2"/>
<rect x="17.438" y="13.901" width="1" height="5" rx="0.5" transform="rotate(44.8291 17.438 13.901)" fill="#009EB2"/>
<rect width="1" height="5" rx="0.5" transform="matrix(0.702612 -0.711573 -0.711573 -0.702612 17.458 18.1388)" fill="#009EB2"/>
</g>
<defs>
<clipPath id="clip0_5_6991">
<rect width="24" height="24" fill="white" transform="translate(0 0.000976562)"/>
</clipPath>
</defs>
</svg>
