<svg width="24" height="24" viewBox="0 0 24 24" fill="none" xmlns="http://www.w3.org/2000/svg">
<g clip-path="url(#clip0_5_6982)">
<circle cx="12" cy="12.001" r="12" fill="#E6F7F9"/>
<g clip-path="url(#clip1_5_6982)">
<path d="M18.9077 11.6759C18.8062 11.5513 18.6972 11.4319 18.5838 11.3185C17.9223 10.6548 17.2594 9.99333 16.595 9.33184C16.5124 9.24925 16.4282 9.16215 16.329 9.10359C16.0922 8.96394 15.7172 8.95943 15.5217 9.24925C15.3113 9.56085 15.4022 9.85292 15.6285 10.0819C16.0561 10.5152 16.4891 10.9439 16.946 11.3996H16.825C15.2692 11.3996 13.7127 11.3996 12.1568 11.3996C11.3068 11.3996 10.4567 11.4056 9.60743 11.3966C9.29176 11.3936 8.97533 11.727 9.00765 12.0296C9.04072 12.3412 9.27973 12.598 9.60818 12.598C11.9832 12.5987 14.3575 12.598 16.7326 12.5987C16.7919 12.5987 16.8513 12.5987 16.9114 12.5987C16.9212 12.6145 16.931 12.6302 16.9415 12.646C16.8964 12.6768 16.8461 12.7016 16.8085 12.7391C16.4094 13.1348 16.0043 13.5252 15.6172 13.9329C15.297 14.2701 15.3308 14.5336 15.5916 14.8332C15.8043 15.0765 16.1974 15.0502 16.4665 14.7739C17.2422 13.9772 18.0366 13.1986 18.8228 12.4125C19.0189 12.2165 19.0625 11.8636 18.9092 11.6752L18.9077 11.6759Z" fill="#009EB2"/>
<path d="M12.8234 17.8004H9.62607C9.60502 17.7989 9.58323 17.7974 9.56068 17.7974C8.75422 17.7989 7.94775 17.7989 7.14204 17.7921C6.66478 17.7884 6.21607 17.3439 6.21532 16.8694C6.21231 13.628 6.21532 10.3874 6.21081 7.1461C6.21081 6.73615 6.59413 6.26538 7.00525 6.23084C7.34647 6.20231 7.69071 6.20381 8.03343 6.2008C8.46635 6.19705 8.89927 6.2008 9.33219 6.19855C9.34798 6.20005 9.36451 6.2008 9.38105 6.2008H12.8241C13.1563 6.2008 13.4246 5.93201 13.4246 5.60089C13.4246 5.26977 13.1548 5.00098 12.8234 5.00098H9.3803C9.3803 5.00098 9.37654 5.00098 9.37504 5.00098C8.69033 5.00098 8.00563 5.00098 7.32092 5.00098C6.94362 5.00098 6.5806 5.05804 6.23862 5.23223C5.46673 5.62642 5.03005 6.25186 5.01728 7.11306C4.99398 8.74913 5.01051 10.3852 5.01051 12.0212H5.00826C5.00826 13.5762 5.00826 15.1312 5.00826 16.6862C5.00826 16.8191 4.98871 16.955 5.00976 17.0841C5.19315 18.1931 6.1101 19.0212 7.24576 19.0002C7.93422 18.9875 8.62269 18.9935 9.31115 18.9965C9.3337 18.9987 9.35625 19.001 9.37955 19.001H12.8226C13.1548 19.001 13.4231 18.7322 13.4231 18.4011C13.4231 18.0699 13.1541 17.8011 12.8226 17.8011L12.8234 17.8004Z" fill="#009EB2"/>
</g>
</g>
<defs>
<clipPath id="clip0_5_6982">
<rect width="24" height="24" fill="white" transform="translate(0 0.000976562)"/>
</clipPath>
<clipPath id="clip1_5_6982">
<rect width="14" height="14" fill="white" transform="translate(5 5.00098)"/>
</clipPath>
</defs>
</svg>
