<svg width="290" height="242" viewBox="0 0 290 242" fill="none" xmlns="http://www.w3.org/2000/svg">
<path d="M169.371 170.742C167.41 169.631 166.077 166.863 166.966 164.822C167.855 162.781 171.228 162.794 172.019 165.029C169.856 163.796 169.755 159.814 171.86 158.831C173.965 157.848 176.865 160.523 176.375 162.995C176.327 160.706 178.485 158.881 180.554 159.459C182.623 160.037 184.021 162.86 183.263 164.921C183.094 162.515 184.532 160.224 186.605 159.593C188.679 158.964 191.206 160.05 192.479 162.122C191.41 160.974 190.434 159.623 190.104 158.067C189.774 156.511 190.258 154.735 191.524 154.1C192.79 153.465 194.717 154.516 194.806 156.088C193.057 154.851 191.328 153.33 190.513 151.258C189.699 149.185 190.161 146.474 191.959 145.657C193.756 144.838 196.39 147.127 195.655 149.097C195.371 146.348 198.189 144.095 200.586 145.159C202.982 146.224 203.906 150.132 202.201 152.002C203.446 149.873 206.705 149.705 208.43 151.681C210.157 153.656 209.837 157.186 207.818 158.429C208.536 156.799 210.861 156.657 212.218 157.918C213.576 159.178 213.965 161.359 213.504 163.115C213.043 164.871 211.881 166.255 210.594 167.373C205.198 172.067 197.672 172.8 190.564 173.363C188.009 173.565 184.645 173.218 183.741 170.502C185.016 171.2 185.022 173.393 183.989 174.303C182.956 175.214 181.393 175.105 180.047 174.632C178.193 173.981 176.875 171.931 175.201 171.343C173.246 170.654 171.484 171.941 169.37 170.744L169.371 170.742Z" fill="#8EBD59"/>
<g clip-path="url(#clip0_2_3744)">
<path d="M276.865 14.9727C274.267 13.2242 271.194 12.4459 268.369 13.1565C267.228 13.4498 266.065 12.694 265.839 11.5434C265.387 9.20836 263.376 7.12147 260.913 6.34311C258.45 5.56476 255.738 6.53488 254.055 8.38488C253.422 9.07299 252.315 8.85866 251.954 7.99006C250.587 4.69616 247.107 2.22573 243.469 2.0114C239.063 1.76323 234.838 4.33519 232.318 7.97878C231.968 8.4864 231.279 8.64433 230.759 8.32848C225.822 5.32787 218.976 5.73397 214.502 9.4114C211.768 11.6449 208.571 14.6794 209.045 20.5001C209.282 23.433 210.48 25.6102 213.09 26.7834C216.456 28.3062 219.676 28.1596 222.941 27.0315C223.834 26.727 224.625 27.2797 224.625 28.216C224.625 30.991 226.432 33.8111 229.11 34.6571C231.064 35.2776 233.234 34.7699 234.894 33.5742C236.182 32.6492 237.922 32.9763 238.758 34.3187C240.408 36.9358 243.424 38.7971 246.565 38.9776C250.971 39.2257 255.196 36.6538 257.716 33.0102C258.066 32.5026 258.755 32.3446 259.275 32.6605C264.212 35.6611 271.058 35.255 275.532 31.5776C278.243 29.344 281.023 27.009 280.977 22.023C280.944 18.0071 278.763 16.2474 276.842 14.9501L276.865 14.9727Z" fill="white"/>
</g>
<g clip-path="url(#clip1_2_3744)">
<path d="M50.1858 18.7651C48.4174 17.5837 46.3261 17.0578 44.4039 17.538C43.6274 17.7362 42.8354 17.2255 42.6817 16.4481C42.3741 14.8703 41.0055 13.4603 39.3294 12.9343C37.6533 12.4084 35.808 13.0639 34.6624 14.3139C34.2318 14.7788 33.4783 14.634 33.2323 14.0471C32.3019 11.8215 29.9338 10.1523 27.4581 10.0075C24.4595 9.83982 21.5839 11.5776 19.8693 14.0395C19.631 14.3825 19.162 14.4892 18.8083 14.2758C15.4483 12.2484 10.789 12.5228 7.74427 15.0075C5.88361 16.5167 3.70771 18.567 4.03064 22.4999C4.1921 24.4816 5.0071 25.9526 6.78319 26.7453C9.07442 27.7743 11.2657 27.6752 13.4877 26.913C14.0951 26.7072 14.6333 27.0807 14.6333 27.7133C14.6333 29.5883 15.8635 31.4938 17.6857 32.0654C19.0159 32.4846 20.4921 32.1417 21.6224 31.3337C22.4989 30.7087 23.6829 30.9298 24.2519 31.8368C25.3744 33.6051 27.4273 34.8627 29.5648 34.9846C32.5634 35.1523 35.4389 33.4145 37.1535 30.9526C37.3918 30.6096 37.8609 30.5029 38.2145 30.7163C41.5745 32.7438 46.2338 32.4694 49.2786 29.9846C51.1238 28.4755 53.0153 26.8978 52.9845 23.5288C52.9614 20.8154 51.4775 19.6264 50.1704 18.7499L50.1858 18.7651Z" fill="white"/>
</g>
<g clip-path="url(#clip2_2_3744)">
<path d="M286.875 73.6614C285.54 72.7635 283.961 72.3638 282.509 72.7287C281.923 72.8793 281.325 72.4912 281.209 71.9004C280.977 70.7013 279.943 69.6296 278.677 69.2299C277.412 68.8303 276.018 69.3284 275.153 70.2784C274.828 70.6318 274.259 70.5217 274.073 70.0757C273.371 68.3842 271.583 67.1156 269.713 67.0056C267.449 66.8781 265.278 68.1989 263.983 70.0699C263.803 70.3306 263.449 70.4117 263.182 70.2495C260.645 68.7086 257.127 68.9171 254.827 70.8056C253.422 71.9525 251.779 73.5107 252.023 76.4998C252.145 78.0059 252.761 79.1239 254.102 79.7263C255.832 80.5083 257.486 80.433 259.164 79.8537C259.623 79.6973 260.029 79.9812 260.029 80.462C260.029 81.887 260.958 83.3351 262.334 83.7696C263.339 84.0882 264.453 83.8275 265.307 83.2135C265.969 82.7385 266.863 82.9065 267.292 83.5958C268.14 84.9397 269.69 85.8955 271.304 85.9882C273.568 86.1156 275.74 84.7949 277.034 82.9239C277.214 82.6632 277.569 82.5821 277.836 82.7443C280.373 84.2851 283.891 84.0766 286.19 82.1882C287.583 81.0412 289.012 79.8421 288.988 77.2818C288.971 75.2196 287.851 74.3159 286.864 73.6498L286.875 73.6614Z" fill="white"/>
</g>
<g clip-path="url(#clip3_2_3744)">
<path d="M32.9899 93.3106C31.7268 92.46 30.233 92.0813 28.86 92.4271C28.3053 92.5697 27.7397 92.2021 27.6298 91.6423C27.4102 90.5063 26.4326 89.4911 25.2354 89.1124C24.0381 88.7338 22.7201 89.2057 21.9018 90.1057C21.5942 90.4405 21.056 90.3362 20.8803 89.9136C20.2157 88.3112 18.5242 87.1094 16.7558 87.0051C14.614 86.8844 12.56 88.1356 11.3353 89.9082C11.1651 90.1551 10.8301 90.2319 10.5774 90.0783C8.17745 88.6185 4.84935 88.8161 2.67455 90.6051C1.34551 91.6917 -0.208707 93.1679 0.021954 95.9996C0.137284 97.4265 0.719428 98.4856 1.98806 99.0563C3.62465 99.7972 5.18985 99.7258 6.77701 99.1771C7.21088 99.0289 7.59531 99.2978 7.59531 99.7533C7.59531 101.103 8.47402 102.475 9.7756 102.887C10.7257 103.189 11.7802 102.942 12.5875 102.36C13.2135 101.91 14.0593 102.069 14.4657 102.722C15.2675 103.995 16.7339 104.901 18.2606 104.989C20.4025 105.109 22.4564 103.858 23.6811 102.086C23.8514 101.839 24.1864 101.762 24.439 101.915C26.839 103.375 30.1671 103.178 32.3419 101.389C33.66 100.302 35.011 99.1661 34.989 96.7405C34.9725 94.7868 33.9126 93.9307 32.979 93.2996L32.9899 93.3106Z" fill="white"/>
</g>
<path d="M42.0881 201.408C42.975 210.542 51.9019 225.737 73.8981 231.74C102.009 240.264 137.448 241.882 155.71 241.999C178.512 242.14 209.715 227.671 223.811 215.677C237.907 203.683 238.514 191.735 237.814 182.555C237.114 173.374 221.559 162.013 203.939 163.068C186.318 164.124 175.851 174.852 155.652 177.091C142.687 178.533 67.025 177.607 56.3011 180.984C47.0825 183.88 41.2013 192.263 42.0881 201.408Z" fill="#C2ED9C"/>
<path d="M198.34 198.47C198.07 198.59 197.77 198.41 197.67 198.08L197.2 196.45C197.11 196.12 197.25 195.76 197.52 195.64C197.79 195.52 198.09 195.7 198.19 196.03L198.71 197.85C198.8 198.18 198.61 198.36 198.33 198.47H198.34Z" fill="#79B042"/>
<path d="M200.47 195.25H199.69C199.61 195.25 199.55 195.31 199.55 195.39V198.11C199.55 198.19 199.61 198.25 199.69 198.25H200.47C200.55 198.25 200.61 198.19 200.61 198.11V195.39C200.61 195.31 200.55 195.25 200.47 195.25Z" fill="#79B042"/>
<path d="M201.81 198.47C202.08 198.59 202.38 198.41 202.48 198.08L202.95 196.45C203.04 196.12 202.9 195.76 202.63 195.64C202.36 195.52 202.06 195.7 201.96 196.03L201.49 197.66C201.4 197.99 201.54 198.35 201.81 198.47Z" fill="#79B042"/>
<path d="M192.55 178.55L191.42 177.59C191.31 177.49 191.14 177.51 191.05 177.62L188.3 180.81C188.2 180.92 188.22 181.09 188.33 181.18L189.46 182.14C189.57 182.24 189.74 182.22 189.83 182.11L192.58 178.92C192.67 178.81 192.66 178.64 192.55 178.55Z" fill="#ADE07F"/>
<path d="M182.61 176.02L181.17 176.39C181.03 176.43 180.94 176.57 180.98 176.71L182.03 180.78C182.07 180.92 182.21 181.01 182.35 180.97L183.79 180.6C183.93 180.56 184.02 180.42 183.98 180.28L182.92 176.21C182.88 176.07 182.74 175.98 182.6 176.02H182.61Z" fill="#ADE07F"/>
<path d="M185.12 180.97L186.52 181.46C186.66 181.51 186.81 181.43 186.86 181.3L188.24 177.33C188.29 177.19 188.22 177.04 188.08 176.99L186.68 176.5C186.54 176.45 186.39 176.53 186.34 176.66L184.96 180.63C184.91 180.77 184.99 180.92 185.12 180.97Z" fill="#ADE07F"/>
<path d="M167.11 212.11L165.71 212.59C165.57 212.64 165.5 212.79 165.55 212.93L166.93 216.9C166.98 217.04 167.13 217.11 167.27 217.06L168.67 216.57C168.81 216.52 168.88 216.37 168.83 216.24L167.45 212.27C167.4 212.13 167.25 212.06 167.11 212.11Z" fill="#ADE07F"/>
<path d="M172.03 211.74H170.54C170.39 211.74 170.28 211.86 170.28 212V216.21C170.28 216.36 170.4 216.47 170.54 216.47H172.03C172.18 216.47 172.29 216.35 172.29 216.21V212C172.29 211.85 172.17 211.74 172.03 211.74Z" fill="#ADE07F"/>
<path d="M173.91 216.58L175.31 217.07C175.45 217.12 175.6 217.05 175.65 216.91L177.03 212.94C177.08 212.8 177 212.65 176.87 212.6L175.47 212.12C175.33 212.07 175.18 212.15 175.13 212.28L173.75 216.25C173.7 216.39 173.77 216.54 173.91 216.58Z" fill="#ADE07F"/>
<path d="M149.576 221.36L148.176 221.84C148.036 221.89 147.966 222.04 148.016 222.18L149.396 226.15C149.446 226.29 149.596 226.36 149.736 226.31L151.136 225.82C151.276 225.77 151.346 225.62 151.296 225.49L149.916 221.52C149.866 221.38 149.716 221.31 149.576 221.36Z" fill="#ADE07F"/>
<path d="M154.496 221H153.006C152.856 221 152.746 221.12 152.746 221.26V225.47C152.746 225.62 152.866 225.73 153.006 225.73H154.496C154.646 225.73 154.756 225.61 154.756 225.47V221.26C154.756 221.11 154.636 221 154.496 221Z" fill="#ADE07F"/>
<path d="M156.376 225.84L157.776 226.33C157.916 226.38 158.066 226.31 158.116 226.17L159.496 222.2C159.546 222.06 159.466 221.91 159.336 221.86L157.936 221.38C157.796 221.33 157.646 221.41 157.596 221.54L156.216 225.51C156.166 225.65 156.236 225.8 156.376 225.84Z" fill="#ADE07F"/>
<path d="M134.93 212.28L133.48 212.78C133.34 212.83 133.26 212.99 133.31 213.13L134.74 217.25C134.79 217.39 134.95 217.47 135.09 217.42L136.54 216.92C136.68 216.87 136.76 216.71 136.71 216.57L135.28 212.45C135.23 212.31 135.07 212.23 134.93 212.28Z" fill="#79B042"/>
<path d="M140.02 211.9H138.48C138.33 211.9 138.21 212.02 138.21 212.17V216.53C138.21 216.68 138.33 216.8 138.48 216.8H140.02C140.17 216.8 140.29 216.68 140.29 216.53V212.17C140.29 212.02 140.17 211.9 140.02 211.9Z" fill="#79B042"/>
<path d="M141.98 216.91L143.43 217.41C143.57 217.46 143.73 217.38 143.78 217.24L145.21 213.12C145.26 212.98 145.18 212.82 145.04 212.77L143.59 212.27C143.45 212.22 143.29 212.3 143.24 212.44L141.81 216.56C141.76 216.7 141.84 216.86 141.98 216.91Z" fill="#79B042"/>
<path d="M73.6799 206.89L72.2299 207.39C72.0899 207.44 72.0099 207.6 72.0599 207.74L73.4899 211.86C73.5399 212 73.6999 212.08 73.8399 212.03L75.2899 211.53C75.4299 211.48 75.5099 211.32 75.4599 211.18L74.0299 207.06C73.9799 206.92 73.8199 206.84 73.6799 206.89Z" fill="#79B042"/>
<path d="M78.77 206.51H77.23C77.08 206.51 76.96 206.63 76.96 206.78V211.14C76.96 211.29 77.08 211.41 77.23 211.41H78.77C78.92 211.41 79.04 211.29 79.04 211.14V206.78C79.04 206.63 78.92 206.51 78.77 206.51Z" fill="#79B042"/>
<path d="M80.7201 211.52L82.1701 212.02C82.3101 212.07 82.4701 211.99 82.5201 211.85L83.9501 207.73C84.0001 207.59 83.9201 207.43 83.7801 207.38L82.3301 206.88C82.1901 206.83 82.0301 206.91 81.9801 207.05L80.5501 211.17C80.5001 211.31 80.5801 211.47 80.7201 211.52Z" fill="#79B042"/>
<path opacity="0.6" d="M142.87 190.73L141.42 191.23C141.28 191.28 141.2 191.44 141.25 191.58L142.68 195.7C142.73 195.84 142.89 195.92 143.03 195.87L144.48 195.37C144.62 195.32 144.7 195.16 144.65 195.02L143.22 190.9C143.17 190.76 143.01 190.68 142.87 190.73Z" fill="#79B042"/>
<path opacity="0.6" d="M147.96 190.35H146.42C146.27 190.35 146.15 190.47 146.15 190.62V194.98C146.15 195.13 146.27 195.25 146.42 195.25H147.96C148.11 195.25 148.23 195.13 148.23 194.98V190.62C148.23 190.47 148.11 190.35 147.96 190.35Z" fill="#79B042"/>
<path opacity="0.6" d="M149.91 195.37L151.36 195.87C151.5 195.92 151.66 195.84 151.71 195.7L153.14 191.58C153.19 191.44 153.11 191.28 152.97 191.23L151.52 190.73C151.38 190.68 151.22 190.76 151.17 190.9L149.74 195.02C149.69 195.16 149.77 195.32 149.91 195.37Z" fill="#79B042"/>
<path d="M144.6 70.07C143.96 70.26 143.28 69.79 142.62 69.34C142.43 69.21 142.24 69.08 142.06 68.97C141.91 68.88 141.86 68.69 141.95 68.54C142.04 68.39 142.23 68.34 142.38 68.43C142.57 68.55 142.77 68.68 142.97 68.82C143.49 69.17 144.07 69.57 144.42 69.46C144.42 69.46 144.42 69.46 144.43 69.46C144.61 69.4 144.76 69.19 144.89 68.83C145.48 67.13 145.91 65.58 145.91 65.56C145.96 65.39 146.13 65.29 146.3 65.34C146.47 65.39 146.56 65.56 146.52 65.72C146.52 65.74 146.08 67.31 145.49 69.03C145.3 69.59 145.02 69.92 144.64 70.05C144.63 70.05 144.62 70.05 144.61 70.06L144.6 70.07Z" fill="#56AAF4"/>
<path d="M142.38 71.2602C142.38 71.5902 142.11 71.8602 141.77 71.8602C141.43 71.8602 141.16 71.5902 141.16 71.2602C141.16 70.9302 141.43 70.6602 141.77 70.6602C142.11 70.6602 142.38 70.9302 142.38 71.2602Z" fill="#56AAF4"/>
<path d="M143.11 76.0502C143.11 76.3802 142.84 76.6502 142.5 76.6502C142.16 76.6502 141.89 76.3802 141.89 76.0502C141.89 75.7202 142.16 75.4502 142.5 75.4502C142.84 75.4502 143.11 75.7202 143.11 76.0502Z" fill="#56AAF4"/>
<path d="M142 78.7799C141.77 78.7799 141.56 78.7299 141.37 78.6199C141.11 78.4599 140.94 78.1899 140.86 77.7899C140.73 77.1599 140.46 75.4999 140.19 73.8899C139.98 72.5999 139.77 71.3499 139.65 70.7099C139.62 70.5399 139.73 70.3799 139.9 70.3399C140.07 70.3099 140.23 70.4199 140.27 70.5899C140.39 71.2299 140.6 72.4799 140.81 73.7799C141.07 75.3799 141.34 77.0399 141.48 77.6499C141.55 77.9799 141.67 78.0499 141.71 78.0799C141.95 78.2299 142.48 78.0999 143.1 77.9399C143.25 77.8999 143.4 77.8599 143.56 77.8199C143.72 77.7799 143.9 77.8799 143.94 78.0499C143.98 78.2199 143.88 78.3899 143.71 78.4299L143.25 78.5399C142.78 78.6599 142.36 78.7599 142.01 78.7599L142 78.7799Z" fill="#56AAF4"/>
<path d="M175.212 48.2661C177.282 55.2961 176.872 54.9161 175.752 55.8561C173.962 57.3561 164.762 61.6061 158.252 65.6461C154.772 67.8061 158.192 74.7261 163.542 73.7461C169.552 69.8861 172.752 68.0161 175.792 66.0161C178.322 64.3561 184.862 61.7061 184.942 58.5261C185.042 54.8061 184.882 51.8061 182.502 46.2061C181.782 44.5161 179.632 40.8661 178.972 39.5161C178.462 38.4761 176.782 35.3461 175.332 33.6961C175.132 33.4261 174.512 32.7361 174.332 32.5761C172.812 31.1761 169.242 31.1361 169.562 34.0461C171.032 36.3961 174.522 46.2061 175.202 48.2761L175.212 48.2661Z" fill="#FFDEC7"/>
<path d="M175.021 33.3157C174.941 33.1157 173.481 31.8057 173.371 31.3957C173.121 30.9157 173.201 30.5857 173.221 30.3657C173.311 29.2557 173.831 27.1257 173.431 25.2657C173.241 24.3957 172.861 23.2657 171.331 21.5857C170.651 20.8457 170.001 22.0857 168.811 21.6657C166.811 20.9657 166.961 22.3257 166.261 22.5257C165.061 22.8757 164.231 24.0657 164.761 25.3657C165.291 26.6557 165.261 26.9757 164.661 27.1957C163.871 27.4757 164.341 28.9057 165.611 29.8457C167.211 30.9457 167.571 31.6757 168.431 32.1957C168.771 32.4057 169.181 33.1357 169.571 34.0257L175.021 33.3057V33.3157Z" fill="#FFDEC7"/>
<path d="M172.212 22.6654L170.972 20.7754L79.9219 79.7354L81.1619 81.6354L172.212 22.6654Z" fill="#D5D5D5"/>
<path d="M174.082 22.8461C174.852 22.3461 174.992 21.1861 174.392 20.2661L174.252 20.0461C173.652 19.1261 172.532 18.7761 171.762 19.2761L156.472 28.7761C155.702 29.2761 155.562 30.4361 156.162 31.3561L156.302 31.5761C156.902 32.4961 158.022 32.8461 158.792 32.3461L174.082 22.8461Z" fill="#2D629B"/>
<path d="M82.4616 77.9957C82.2516 77.9057 82.0116 77.9257 81.8216 78.0557C80.9116 78.6857 78.0216 80.5657 76.0816 81.8857C73.5416 83.5957 73.9216 88.7757 74.2016 91.7357C74.4916 94.6957 76.1116 101.556 78.5116 103.746C80.3316 105.406 81.2916 105.236 84.5316 103.256C88.0416 101.116 89.0216 100.346 88.4916 97.8057C87.8816 94.8957 82.4316 88.1357 81.6516 86.3657C81.1316 85.1757 79.7016 83.8357 83.0516 81.5957C85.7916 79.7657 83.4216 78.4257 82.4716 78.0057L82.4616 77.9957Z" fill="#CDE8F9"/>
<path d="M139.121 52.1061C139.481 52.1061 147.171 50.7461 147.621 50.7061C147.801 51.5161 148.631 53.5161 149.081 54.5061C149.531 55.4961 153.081 60.9161 153.531 61.4161C155.311 71.4761 136.561 73.3861 136.971 62.4261C137.921 61.9361 138.531 58.2761 138.941 56.3261C139.241 54.8961 139.111 52.6561 139.111 52.1161L139.121 52.1061Z" fill="#FFDEC7"/>
<path d="M160.091 59.8456C158.441 58.6856 153.841 59.2056 156.621 57.9656C158.401 57.1656 154.171 64.2156 153.171 64.2156C152.331 64.2156 147.511 58.4156 146.761 58.0756C146.251 57.8456 145.431 57.8656 143.641 59.2856C141.631 60.8856 137.491 60.8256 136.411 62.2856C132.071 66.9156 131.701 70.8356 133.201 74.3556C134.021 76.6356 134.771 83.7256 135.201 86.8156C135.441 88.5156 135.731 93.4556 135.791 98.6256C135.841 102.716 134.781 108.286 136.761 112.536C137.771 114.706 147.651 113.886 150.081 113.776C152.511 113.676 162.771 113.356 165.411 113.076C168.051 112.796 171.431 113.666 171.051 108.596C170.531 101.856 169.421 96.4956 167.851 92.0656C166.761 88.9956 164.251 80.0256 163.091 75.5256C162.041 71.4356 161.301 60.7056 160.101 59.8656L160.091 59.8456Z" fill="#56AAF4"/>
<path d="M150.832 85.5058C153.012 85.3258 157.032 82.5058 161.352 79.0758C166.772 74.7558 170.392 76.0858 168.722 72.7958C167.402 70.1758 165.822 65.5058 163.412 61.9558C161.752 59.5058 156.962 62.3558 153.322 65.1758C149.692 67.9958 148.642 70.3358 148.322 73.4558C147.992 76.6558 148.512 85.6958 150.832 85.5058Z" fill="#56AAF4"/>
<path d="M162.582 43.0257C164.652 50.0557 163.562 51.0057 162.442 51.9357C160.652 53.4357 151.452 57.6857 144.942 61.7257C141.462 63.8857 144.882 70.8057 150.232 69.8257C156.242 65.9657 159.742 64.4157 162.782 62.4157C165.312 60.7557 169.872 58.1557 171.432 55.3757C172.552 53.3857 172.572 52.4957 172.132 50.9957C171.072 47.3457 170.502 45.9657 169.122 42.3257C168.472 40.6157 165.822 35.8757 165.262 35.0457C164.612 34.0757 164.282 34.2957 162.832 32.6457C161.842 30.8057 159.882 33.8457 160.232 37.0957C161.702 39.4457 161.882 40.9657 162.562 43.0257H162.582Z" fill="#FFDEC7"/>
<path d="M136.052 80.4163C138.862 80.3363 143.912 77.5363 149.302 74.0963C156.092 69.7763 160.092 68.8563 157.782 65.2863C155.942 62.4463 154.412 59.9163 151.132 56.0163C148.872 53.3363 142.832 56.1363 138.272 58.9463C133.722 61.7663 132.492 64.1963 132.222 67.4963C131.952 70.8863 133.062 80.5063 136.052 80.4163Z" fill="#56AAF4"/>
<path d="M124.242 189.036C123.142 192.986 121.042 196.676 120.652 197.466C119.002 202.376 130.732 204.226 131.152 200.216C130.032 199.616 130.092 198.406 129.612 194.316C129.532 193.636 129.962 192.146 130.752 190.156C128.762 189.096 126.802 188.006 124.822 186.956C124.622 187.696 124.422 188.396 124.242 189.046V189.036Z" fill="#FFDAAF"/>
<path d="M133.392 200.406C131.712 199.396 130.572 197.506 129.972 197.836C128.092 198.876 123.652 197.956 121.902 196.616C120.742 195.726 119.912 194.896 119.302 196.536C119.112 197.056 118.042 198.876 117.682 200.266C117.222 201.996 115.642 202.936 122.232 207.126C128.812 211.316 136.022 208.716 139.072 207.646C142.122 206.576 140.742 205.066 140.412 204.346C139.852 203.096 135.982 201.956 133.402 200.406H133.392Z" fill="#0054A7"/>
<path d="M170.741 105.396C170.891 106.706 173.981 134.536 174.221 138.026C174.891 147.566 175.911 189.126 175.911 190.146C175.911 191.166 171.871 194.246 170.661 194.246C169.451 194.246 168.111 195.706 167.701 192.516C167.041 187.416 156.511 133.896 156.461 131.946C156.431 130.766 155.371 131.326 155.221 133.046C154.891 136.916 149.361 160.216 149.091 160.866C145.041 170.586 140.211 179.826 133.591 192.446C132.691 194.156 127.531 192.276 125.231 191.766C120.821 190.776 121.001 188.526 122.721 184.306C126.481 175.096 132.291 155.956 133.751 151.966C138.011 140.296 134.441 109.046 135.551 106.966C136.061 106.006 145.151 106.246 152.931 105.906C162.001 105.506 170.621 104.476 170.731 105.416L170.741 105.396Z" fill="#D0DAE2"/>
<path d="M168.672 178.556C171.112 176.076 172.442 170.816 176.852 171.806C179.602 172.426 180.722 174.546 180.722 179.026C180.722 183.496 179.942 185.706 177.082 190.686C174.222 195.676 173.522 198.766 169.232 196.286C165.672 194.226 165.572 187.816 165.992 185.316C166.412 182.816 166.832 180.306 168.672 178.556Z" fill="#0054A7"/>
<path d="M139.041 55.8159C139.041 55.8159 142.651 55.4559 143.531 54.9259C144.431 54.3759 146.111 53.5459 146.111 53.5459C146.111 53.5459 145.121 54.2659 144.101 54.5059C143.521 54.6459 142.411 54.5959 141.611 54.4259C140.481 54.1859 139.151 53.7259 139.151 53.7259L138.941 56.3159L139.041 55.8159Z" fill="#EAC4AC"/>
<path d="M137.112 80.8061L136.832 80.0261C136.892 80.0061 143.012 77.8061 148.342 74.4461C154.452 70.5961 157.232 68.8761 157.502 68.5161L158.362 67.9961C157.872 68.6661 153.272 72.3161 148.792 75.1461C143.382 78.5661 137.182 80.7861 137.122 80.8061H137.112Z" fill="#4196D6"/>
<path d="M150.952 85.9059L150.712 85.1159C150.712 85.1159 154.712 83.9059 159.202 80.4659C159.962 79.8859 160.922 79.1459 161.662 78.5359C162.822 77.5759 163.982 76.8259 164.452 76.5759C166.002 75.7359 167.012 75.2859 167.612 75.0159C167.982 74.8459 168.362 74.7459 168.552 74.6559L169.072 74.5059C168.912 74.7759 167.892 75.6259 167.222 75.9259C166.592 76.2059 166.372 76.4859 164.842 77.3059C164.472 77.5059 163.352 78.2159 162.192 79.1759C161.442 79.7959 160.472 80.5459 159.712 81.1259C155.092 84.6759 151.112 85.8659 150.952 85.9159V85.9059Z" fill="#4196D6"/>
<path d="M151.442 40.3361C151.142 38.5761 146.222 30.2361 139.102 31.7261C131.982 33.2161 131.322 41.7161 132.642 45.6561C133.652 48.6661 135.152 50.4961 135.152 50.4961C135.152 50.4961 136.742 52.4061 137.652 52.9861C138.962 53.8261 141.902 54.8161 144.232 54.3861C146.102 54.0461 148.062 51.9361 148.992 50.3961C149.872 48.9461 150.412 48.1461 150.562 46.4061C150.702 44.6661 151.732 42.0761 151.442 40.3261V40.3361Z" fill="#FFDEC7"/>
<path d="M138.332 46.6261C138.082 46.6261 137.852 46.5561 137.732 46.3461C137.502 45.9261 138.052 43.2961 138.292 42.1861C138.312 42.0861 138.412 42.0161 138.512 42.0461C138.612 42.0661 138.672 42.1661 138.652 42.2661C138.272 43.9761 137.942 45.9061 138.052 46.1661C138.152 46.3461 138.712 46.2161 138.982 46.1161C139.082 46.0761 139.192 46.1161 139.222 46.2161C139.262 46.3161 139.222 46.4161 139.122 46.4561C139.052 46.4861 138.682 46.6261 138.322 46.6261H138.332Z" fill="#170101"/>
<path d="M142.352 39.6954C142.352 39.6954 141.012 39.5954 141.002 40.1554C141.002 40.1554 141.002 40.5354 142.172 40.5954C143.342 40.6554 144.182 40.6454 144.192 40.2754C144.192 39.8654 142.972 39.6854 142.352 39.6954Z" fill="#382007"/>
<path d="M134.311 39.9555C134.311 39.9555 132.981 40.1455 133.101 40.6955C133.101 40.6955 133.191 41.0655 134.341 40.8755C135.491 40.6855 136.321 40.4955 136.241 40.1255C136.161 39.7255 134.921 39.8155 134.311 39.9555Z" fill="#382007"/>
<path d="M135.751 42.9755C135.771 43.3355 135.491 43.6355 135.141 43.6555C134.791 43.6755 134.491 43.3955 134.481 43.0355C134.461 42.6755 134.741 42.3755 135.091 42.3555C135.441 42.3355 135.741 42.6155 135.751 42.9755Z" fill="#382007"/>
<path d="M143.582 42.1962C143.602 42.5562 143.322 42.8562 142.972 42.8762C142.622 42.8962 142.322 42.6162 142.312 42.2562C142.292 41.8962 142.572 41.5962 142.922 41.5762C143.272 41.5562 143.572 41.8362 143.582 42.1962Z" fill="#382007"/>
<path d="M149.922 42.0261L149.512 41.9861C149.562 41.4861 149.462 41.1061 149.232 40.8561C148.922 40.5261 148.442 40.5361 148.442 40.5361L148.422 40.1261C148.422 40.1261 149.092 40.1061 149.532 40.5661C149.852 40.9061 149.982 41.3861 149.932 42.0161L149.922 42.0261Z" fill="#D39D79"/>
<path d="M152.381 46.6956C153.081 45.4756 153.041 44.7256 153.121 43.2956C153.231 41.3856 153.051 40.5756 152.831 37.6856C152.541 34.0156 150.051 30.0956 144.441 29.6456C138.831 29.2056 136.671 30.5056 135.121 31.5656C133.701 32.5256 133.631 33.2556 133.571 34.2656C133.511 35.2756 132.451 36.2256 133.471 36.4756C134.521 36.7356 138.111 36.5256 140.151 36.0756C141.721 35.7256 144.291 35.6356 145.751 36.6756C146.931 37.5156 146.561 39.5556 146.631 39.9156C146.701 40.2756 147.301 40.3056 147.441 40.1656C147.621 39.9956 147.781 39.3156 148.261 39.0856C148.981 38.7356 150.001 38.7956 150.601 39.8356C151.441 41.2856 151.091 43.1756 150.291 43.5656C149.861 43.7756 149.111 44.0256 148.991 44.6956C148.841 45.4956 149.041 45.5956 149.421 46.0756C149.591 46.2956 149.721 46.5056 149.761 46.7856C149.811 47.0856 149.781 47.4556 149.631 47.9756C149.471 48.5356 149.751 48.9156 149.851 48.9756C150.151 49.1356 150.721 48.5456 150.901 48.3856C151.541 47.8556 151.921 47.5056 152.381 46.6856V46.6956Z" fill="#723F11"/>
<path d="M152.882 38.636C152.882 38.636 152.792 27.746 144.162 26.816C135.532 25.886 130.472 33.206 131.112 37.906C131.112 37.906 136.182 32.396 152.882 38.636Z" fill="#F8CC62"/>
<path d="M152.882 38.6356C152.882 38.6356 136.102 32.3256 126.452 34.4856C126.452 34.4856 122.642 35.6356 125.852 37.4056C129.072 39.1756 132.282 38.6856 132.282 38.6856C132.282 38.6856 133.282 36.2856 140.432 36.5456C147.022 36.7856 152.882 38.6356 152.882 38.6356Z" fill="#F4B44E"/>
<path d="M165.272 35.046C165.132 34.906 164.922 34.436 164.822 34.346C164.642 33.946 164.232 33.566 164.212 33.306C164.092 32.046 164.262 29.556 163.452 27.556C163.072 26.616 162.422 25.426 160.372 23.846C159.472 23.146 158.982 24.666 157.562 24.426C155.182 24.026 155.622 25.526 154.882 25.896C153.602 26.526 152.912 28.026 153.762 29.366C154.612 30.706 154.642 31.076 154.002 31.436C153.172 31.906 153.982 33.406 155.582 34.226C157.592 35.146 158.132 35.896 159.202 36.306C159.622 36.466 160.222 37.206 160.842 38.136L165.272 35.046Z" fill="#FFDEC7"/>
<path d="M162.542 26.3255L162.992 23.9755C163.112 23.5455 163.462 23.3155 163.542 23.2855C163.632 23.2555 163.842 23.2655 163.952 23.3355C164.192 23.4955 164.222 23.9855 164.272 24.3255L164.482 25.7855C164.482 25.7855 166.042 26.6655 166.772 29.4955L165.022 29.3255L164.662 28.8555L163.752 27.7155L162.542 26.3255Z" fill="#FFDEC7"/>
<path d="M169.932 19.2855C169.822 19.1955 169.712 19.1255 169.582 19.0755C169.142 18.9055 168.622 19.0255 168.292 19.4055C168.282 19.4255 168.272 19.4355 168.252 19.4555C168.212 19.4255 168.182 19.3855 168.142 19.3555C168.032 19.2655 167.922 19.1955 167.792 19.1455C167.352 18.9755 166.832 19.0955 166.502 19.4755C166.372 19.6255 166.292 19.8055 166.252 19.9855C166.202 19.9555 166.142 19.9255 166.082 19.9055C165.642 19.7355 165.122 19.8555 164.792 20.2355C164.522 20.5455 164.452 20.9555 164.562 21.3155C164.542 21.3155 164.522 21.2955 164.502 21.2855C164.062 21.1155 163.542 21.2355 163.212 21.6155C162.792 22.0955 162.852 22.8255 163.332 23.2455C164.042 23.8555 164.772 23.7355 165.072 23.4555C165.072 23.4555 169.712 20.6155 170.412 20.3755C170.852 20.2255 170.572 19.8155 169.922 19.2655L169.932 19.2855Z" fill="#FFDEC7"/>
<path d="M139.402 50.3963C138.562 50.3963 137.682 50.1763 137.202 49.9963L137.352 49.6063C137.902 49.8163 139.102 50.0963 140.002 49.9363C141.052 49.7463 142.262 48.7063 142.272 48.6963L142.542 49.0063C142.492 49.0563 141.232 50.1263 140.072 50.3363C139.862 50.3763 139.632 50.3863 139.392 50.3863L139.402 50.3963Z" fill="#D39D79"/>
<path opacity="0.74" d="M81.5818 93.0156C82.0018 92.8056 82.4618 93.2956 83.6318 95.6356C84.8018 97.9856 85.2618 98.9856 84.6618 99.4156C83.9718 99.9156 83.7018 98.9856 83.5718 98.6856C82.8918 97.0656 82.2518 95.7256 81.5018 94.2756C81.2618 93.8056 81.1518 93.2156 81.5718 93.0156H81.5818Z" fill="white"/>
<path opacity="0.74" d="M78.9016 94.3457C79.3216 94.1357 79.7816 94.6257 80.9516 96.9657C82.1216 99.3157 82.5816 100.316 81.9816 100.746C81.2916 101.246 81.0216 100.316 80.8916 100.016C80.2116 98.3957 79.5716 97.0557 78.8216 95.6057C78.5816 95.1357 78.4716 94.5457 78.8916 94.3457H78.9016Z" fill="white"/>
<path d="M88.7201 194.81H87.9701C87.7801 194.81 87.6201 194.97 87.6201 195.16V198.57C87.6201 198.76 87.7801 198.92 87.9701 198.92H88.7201C88.9101 198.92 89.0701 198.76 89.0701 198.57V195.16C89.0701 194.97 88.9101 194.81 88.7201 194.81Z" fill="#88A8F7"/>
<path d="M91.0199 194.42C91.0199 194.51 90.9799 194.6 90.9199 194.66L90.1499 195.43C90.0899 195.49 89.9999 195.53 89.9099 195.53H86.7999C86.7099 195.53 86.6199 195.49 86.5599 195.43L85.7899 194.66C85.7299 194.6 85.6899 194.51 85.6899 194.42C85.6899 194.23 85.8399 194.08 86.0299 194.08H90.6799C90.8699 194.08 91.0199 194.23 91.0199 194.42Z" fill="#88A8F7"/>
<path d="M99.79 217.39C106.85 217.39 112.58 214.82 112.58 211.66C112.58 208.5 106.85 205.92 99.79 205.92C92.73 205.92 87 208.49 87 211.66C87 214.83 92.72 217.39 99.79 217.39Z" fill="#EDDCB9"/>
<path d="M99.79 208.949C105.62 208.949 110.54 210.699 112.08 213.099C112.4 212.599 112.58 212.059 112.58 211.509C112.58 208.339 106.85 205.779 99.79 205.779C92.73 205.779 87 208.349 87 211.509C87 212.059 87.18 212.589 87.5 213.099C89.03 210.709 93.95 208.949 99.79 208.949Z" fill="#DDBE88"/>
<path d="M98.29 217.51V131.94C98.29 130.87 98.89 130 99.64 130C100.39 130 100.99 130.87 100.99 131.94V217.18C100.99 217.18 100.16 217.36 99.79 217.41C99.61 217.43 99.28 217.46 98.97 217.48C98.63 217.5 98.3 217.51 98.3 217.51H98.29Z" fill="#B0BAC1"/>
<path d="M114.03 137.41C113.68 137.11 113.68 136.56 114.03 136.26L117.45 133.34L119.8 131.34C120.34 130.88 120.01 130.01 119.31 130.01H98.6999C98.2799 130.01 97.9399 130.35 97.9399 130.77V143.07C97.9399 143.49 98.2799 143.83 98.6999 143.83H119.48C120.19 143.83 120.51 142.95 119.98 142.5L117.45 140.34L114.03 137.42V137.41Z" fill="#FF4058"/>
<path d="M84 146.006C84 151.526 79.5233 156 74 156C70.7087 156 67.7831 154.412 65.9672 151.955C64.7314 150.291 64 148.224 64 145.994C64 140.499 68.4388 136.05 73.9243 136H74C79.5233 136 84 140.474 84 145.994V146.006Z" fill="white"/>
<path d="M74.5507 137.074C74.5507 137.354 74.3726 137.595 74.1182 137.697C74.2454 137.583 74.3344 137.404 74.3344 137.214C74.3344 136.845 74.0418 136.552 73.6729 136.552C73.5965 136.552 73.5202 136.565 73.4438 136.59C73.5584 136.488 73.711 136.412 73.8891 136.412C74.2581 136.412 74.5507 136.705 74.5507 137.074Z" fill="#D8D8D8"/>
<path d="M73.0239 136.832C73.0239 137.111 72.8458 137.353 72.5913 137.455C72.7185 137.34 72.8076 137.162 72.8076 136.971C72.8076 136.602 72.515 136.31 72.146 136.31C72.0697 136.31 71.9933 136.323 71.917 136.348C72.0315 136.246 72.1842 136.17 72.3623 136.17C72.7313 136.17 73.0239 136.463 73.0239 136.832Z" fill="#D8D8D8"/>
<path d="M73.5836 137.557C73.7236 137.811 73.6854 138.104 73.5073 138.308C73.5582 138.142 73.5455 137.951 73.4564 137.786C73.2783 137.468 72.8839 137.353 72.5658 137.532C72.5022 137.57 72.4386 137.621 72.3877 137.671C72.4386 137.519 72.5404 137.392 72.693 137.303C73.0111 137.124 73.4182 137.239 73.5836 137.557Z" fill="#D8D8D8"/>
<path d="M71.7135 137.392C71.8535 137.646 71.8153 137.939 71.6372 138.142C71.6881 137.977 71.6754 137.786 71.5863 137.621C71.4082 137.303 71.0138 137.188 70.6957 137.366C70.6321 137.404 70.5685 137.455 70.5176 137.506C70.5685 137.354 70.6703 137.226 70.8229 137.137C71.141 136.959 71.5481 137.074 71.7135 137.392Z" fill="#D8D8D8"/>
<path d="M73.7741 138.931C73.914 139.186 73.8759 139.478 73.6977 139.682C73.7486 139.517 73.7359 139.326 73.6468 139.16C73.4687 138.842 73.0743 138.728 72.7562 138.906C72.6926 138.944 72.629 138.995 72.5781 139.046C72.629 138.893 72.7308 138.766 72.8835 138.677C73.2015 138.499 73.6087 138.613 73.7741 138.931Z" fill="#D8D8D8"/>
<path d="M75.4665 139.286C75.6064 139.541 75.5682 139.834 75.3901 140.037C75.441 139.872 75.4283 139.681 75.3392 139.515C75.1611 139.197 74.7667 139.083 74.4486 139.261C74.385 139.299 74.3214 139.35 74.2705 139.401C74.3214 139.248 74.4232 139.121 74.5759 139.032C74.8939 138.854 75.3011 138.968 75.4665 139.286Z" fill="#D8D8D8"/>
<path d="M76.1154 140.559C76.2553 140.813 76.2172 141.106 76.039 141.31C76.0899 141.144 76.0772 140.953 75.9882 140.788C75.81 140.47 75.4156 140.355 75.0976 140.533C75.0339 140.572 74.9703 140.623 74.9194 140.673C74.9703 140.521 75.0721 140.394 75.2248 140.304C75.5429 140.126 75.95 140.241 76.1154 140.559Z" fill="#D8D8D8"/>
<path d="M74.2199 140.394C74.3598 140.648 74.3217 140.941 74.1435 141.144C74.1944 140.979 74.1817 140.788 74.0927 140.623C73.9145 140.305 73.5201 140.19 73.202 140.368C73.1384 140.406 73.0748 140.457 73.0239 140.508C73.0748 140.355 73.1766 140.228 73.3293 140.139C73.6473 139.961 74.0545 140.076 74.2199 140.394Z" fill="#D8D8D8"/>
<path d="M72.5783 140.012C72.7182 140.267 72.6801 140.559 72.5019 140.763C72.5528 140.597 72.5401 140.406 72.451 140.241C72.2729 139.923 71.8785 139.808 71.5604 139.987C71.4968 140.025 71.4332 140.076 71.3823 140.127C71.4332 139.974 71.535 139.847 71.6877 139.758C72.0057 139.579 72.4129 139.694 72.5783 140.012Z" fill="#D8D8D8"/>
<path d="M71.3698 141.107C71.5097 141.361 71.4716 141.654 71.2934 141.857C71.3443 141.692 71.3316 141.501 71.2426 141.336C71.0644 141.018 70.67 140.903 70.3519 141.081C70.2883 141.12 70.2247 141.17 70.1738 141.221C70.2247 141.069 70.3265 140.941 70.4792 140.852C70.7973 140.674 71.2044 140.789 71.3698 141.107Z" fill="#D8D8D8"/>
<path d="M73.0236 141.603C73.1635 141.857 73.1254 142.15 72.9473 142.353C72.9981 142.188 72.9854 141.997 72.8964 141.832C72.7182 141.514 72.3238 141.399 72.0058 141.577C71.9421 141.615 71.8785 141.666 71.8276 141.717C71.8785 141.564 71.9803 141.437 72.133 141.348C72.4511 141.17 72.8582 141.285 73.0236 141.603Z" fill="#D8D8D8"/>
<path d="M76.103 137.239C76.103 137.519 75.9249 137.761 75.6704 137.862C75.7976 137.748 75.8867 137.57 75.8867 137.379C75.8867 137.01 75.5941 136.717 75.2251 136.717C75.1488 136.717 75.0724 136.73 74.9961 136.756C75.1106 136.654 75.2633 136.577 75.4414 136.577C75.8104 136.577 76.103 136.87 76.103 137.239Z" fill="#D8D8D8"/>
<path d="M77.7441 137.621C77.7441 137.9 77.566 138.142 77.3115 138.244C77.4387 138.129 77.5278 137.951 77.5278 137.761C77.5278 137.392 77.2352 137.099 76.8662 137.099C76.7899 137.099 76.7135 137.112 76.6372 137.137C76.7517 137.035 76.9044 136.959 77.0825 136.959C77.4515 136.959 77.7441 137.252 77.7441 137.621Z" fill="#D8D8D8"/>
<path d="M79.1943 138.116C79.1943 138.396 79.0162 138.638 78.7617 138.74C78.8889 138.625 78.978 138.447 78.978 138.256C78.978 137.887 78.6854 137.595 78.3164 137.595C78.2401 137.595 78.1637 137.607 78.0874 137.633C78.2019 137.531 78.3546 137.455 78.5327 137.455C78.9017 137.455 79.1943 137.747 79.1943 138.116Z" fill="#D8D8D8"/>
<path d="M81.1538 139.974C81.1538 140.254 80.9756 140.495 80.7212 140.597C80.8484 140.483 80.9375 140.304 80.9375 140.114C80.9375 139.745 80.6449 139.452 80.2759 139.452C80.1996 139.452 80.1232 139.465 80.0469 139.49C80.1614 139.388 80.3141 139.312 80.4922 139.312C80.8611 139.312 81.1538 139.605 81.1538 139.974Z" fill="#D8D8D8"/>
<path d="M80.8613 142.455C80.8613 142.735 80.6832 142.977 80.4287 143.078C80.5559 142.964 80.645 142.786 80.645 142.595C80.645 142.226 80.3524 141.933 79.9834 141.933C79.9071 141.933 79.8307 141.946 79.7544 141.972C79.8689 141.87 80.0216 141.793 80.1997 141.793C80.5687 141.793 80.8613 142.086 80.8613 142.455Z" fill="#D8D8D8"/>
<path d="M80.4668 140.967C80.4668 141.246 80.2886 141.488 80.0342 141.59C80.1614 141.475 80.2505 141.297 80.2505 141.106C80.2505 140.738 79.9578 140.445 79.5889 140.445C79.5125 140.445 79.4362 140.458 79.3599 140.483C79.4744 140.381 79.627 140.305 79.8052 140.305C80.1741 140.305 80.4668 140.598 80.4668 140.967Z" fill="#D8D8D8"/>
<path d="M79.4487 141.921C79.4487 142.201 79.2706 142.442 79.0161 142.544C79.1433 142.43 79.2324 142.251 79.2324 142.061C79.2324 141.692 78.9398 141.399 78.5708 141.399C78.4945 141.399 78.4181 141.412 78.3418 141.437C78.4563 141.335 78.609 141.259 78.7871 141.259C79.1561 141.259 79.4487 141.552 79.4487 141.921Z" fill="#D8D8D8"/>
<path d="M77.8203 141.59C77.8203 141.87 77.6422 142.112 77.3877 142.213C77.5149 142.099 77.604 141.921 77.604 141.73C77.604 141.361 77.3114 141.068 76.9424 141.068C76.8661 141.068 76.7897 141.081 76.7134 141.107C76.8279 141.005 76.9806 140.928 77.1587 140.928C77.5276 140.928 77.8203 141.221 77.8203 141.59Z" fill="#D8D8D8"/>
<path d="M76.6499 142.557C76.6499 142.837 76.4717 143.078 76.2173 143.18C76.3445 143.066 76.4336 142.888 76.4336 142.697C76.4336 142.328 76.1409 142.035 75.772 142.035C75.6956 142.035 75.6193 142.048 75.543 142.073C75.6575 141.972 75.8102 141.895 75.9883 141.895C76.3572 141.895 76.6499 142.188 76.6499 142.557Z" fill="#D8D8D8"/>
<path d="M73.7617 143.536C73.7617 143.816 73.5836 144.057 73.3291 144.159C73.4563 144.045 73.5454 143.867 73.5454 143.676C73.5454 143.307 73.2528 143.014 72.8838 143.014C72.8075 143.014 72.7311 143.027 72.6548 143.052C72.7693 142.951 72.922 142.874 73.1001 142.874C73.4691 142.874 73.7617 143.167 73.7617 143.536Z" fill="#D8D8D8"/>
<path d="M74.8559 142.353C74.8559 142.633 74.6778 142.875 74.4233 142.976C74.5506 142.862 74.6396 142.684 74.6396 142.493C74.6396 142.124 74.347 141.831 73.978 141.831C73.9017 141.831 73.8254 141.844 73.749 141.87C73.8635 141.768 74.0162 141.691 74.1943 141.691C74.5633 141.691 74.8559 141.984 74.8559 142.353Z" fill="#D8D8D8"/>
<path d="M81.7133 141.425C81.7133 141.705 81.5352 141.947 81.2808 142.048C81.408 141.934 81.497 141.756 81.497 141.565C81.497 141.196 81.2044 140.903 80.8355 140.903C80.7591 140.903 80.6828 140.916 80.6064 140.942C80.721 140.84 80.8736 140.763 81.0517 140.763C81.4207 140.763 81.7133 141.056 81.7133 141.425Z" fill="#D8D8D8"/>
<path d="M82.2602 142.875C82.2602 143.155 82.0821 143.397 81.8276 143.498C81.9549 143.384 82.0439 143.206 82.0439 143.015C82.0439 142.646 81.7513 142.353 81.3823 142.353C81.306 142.353 81.2297 142.366 81.1533 142.391C81.2678 142.29 81.4205 142.213 81.5986 142.213C81.9676 142.213 82.2602 142.506 82.2602 142.875Z" fill="#D8D8D8"/>
<path d="M83.0879 146.017C83.0879 146.297 82.9097 146.539 82.6553 146.64C82.7825 146.526 82.8716 146.348 82.8716 146.157C82.8716 145.788 82.5789 145.495 82.21 145.495C82.1336 145.495 82.0573 145.508 81.981 145.534C82.0955 145.432 82.2481 145.355 82.4263 145.355C82.7952 145.355 83.0879 145.648 83.0879 146.017Z" fill="#D8D8D8"/>
<path d="M83.4692 147.595C83.4692 147.875 83.2911 148.117 83.0366 148.218C83.1638 148.104 83.2529 147.926 83.2529 147.735C83.2529 147.366 82.9603 147.073 82.5913 147.073C82.515 147.073 82.4386 147.086 82.3623 147.111C82.4768 147.01 82.6295 146.933 82.8076 146.933C83.1766 146.933 83.4692 147.226 83.4692 147.595Z" fill="#D8D8D8"/>
<path d="M82.477 148.741C82.477 149.021 82.2989 149.262 82.0444 149.364C82.1717 149.25 82.2607 149.071 82.2607 148.881C82.2607 148.512 81.9681 148.219 81.5991 148.219C81.5228 148.219 81.4465 148.232 81.3701 148.257C81.4846 148.155 81.6373 148.079 81.8154 148.079C82.1844 148.079 82.477 148.372 82.477 148.741Z" fill="#D8D8D8"/>
<path d="M81.1538 148.447C81.1538 148.727 80.9756 148.969 80.7212 149.071C80.8484 148.956 80.9375 148.778 80.9375 148.587C80.9375 148.218 80.6449 147.926 80.2759 147.926C80.1996 147.926 80.1232 147.939 80.0469 147.964C80.1614 147.862 80.3141 147.786 80.4922 147.786C80.8611 147.786 81.1538 148.079 81.1538 148.447Z" fill="#D8D8D8"/>
<path d="M80.0087 149.669C80.0087 149.949 79.8306 150.19 79.5762 150.292C79.7034 150.178 79.7925 149.999 79.7925 149.809C79.7925 149.44 79.4998 149.147 79.1309 149.147C79.0545 149.147 78.9782 149.16 78.9019 149.185C79.0164 149.083 79.169 149.007 79.3472 149.007C79.7161 149.007 80.0087 149.3 80.0087 149.669Z" fill="#D8D8D8"/>
<path d="M81.4209 150.013C81.4209 150.293 81.2427 150.535 80.9883 150.636C81.1155 150.522 81.2046 150.344 81.2046 150.153C81.2046 149.784 80.9119 149.491 80.543 149.491C80.4666 149.491 80.3903 149.504 80.314 149.529C80.4285 149.428 80.5811 149.351 80.7593 149.351C81.1282 149.351 81.4209 149.644 81.4209 150.013Z" fill="#D8D8D8"/>
<path d="M80.5556 151.12C80.5556 151.4 80.3775 151.641 80.123 151.743C80.2503 151.629 80.3393 151.451 80.3393 151.26C80.3393 150.891 80.0467 150.598 79.6777 150.598C79.6014 150.598 79.5251 150.611 79.4487 150.636C79.5632 150.535 79.7159 150.458 79.894 150.458C80.263 150.458 80.5556 150.751 80.5556 151.12Z" fill="#D8D8D8"/>
<path d="M78.7109 151.043C78.7109 151.323 78.5328 151.565 78.2783 151.666C78.4055 151.552 78.4946 151.374 78.4946 151.183C78.4946 150.814 78.202 150.521 77.833 150.521C77.7567 150.521 77.6803 150.534 77.604 150.559C77.7185 150.458 77.8712 150.381 78.0493 150.381C78.4183 150.381 78.7109 150.674 78.7109 151.043Z" fill="#D8D8D8"/>
<path d="M82.146 147.289C82.146 147.569 81.9678 147.811 81.7134 147.913C81.8406 147.798 81.9297 147.62 81.9297 147.429C81.9297 147.06 81.637 146.768 81.2681 146.768C81.1917 146.768 81.1154 146.78 81.0391 146.806C81.1536 146.704 81.3062 146.628 81.4844 146.628C81.8533 146.628 82.146 146.92 82.146 147.289Z" fill="#D8D8D8"/>
<path d="M80.8613 146.934C80.8613 147.214 80.6832 147.456 80.4287 147.557C80.5559 147.443 80.645 147.265 80.645 147.074C80.645 146.705 80.3524 146.412 79.9834 146.412C79.9071 146.412 79.8307 146.425 79.7544 146.451C79.8689 146.349 80.0216 146.272 80.1997 146.272C80.5687 146.272 80.8613 146.565 80.8613 146.934Z" fill="#D8D8D8"/>
<path d="M79.6523 148.231C79.6523 148.511 79.4742 148.753 79.2197 148.855C79.347 148.74 79.436 148.562 79.436 148.371C79.436 148.002 79.1434 147.71 78.7744 147.71C78.6981 147.71 78.6217 147.722 78.5454 147.748C78.6599 147.646 78.8126 147.57 78.9907 147.57C79.3597 147.57 79.6523 147.862 79.6523 148.231Z" fill="#D8D8D8"/>
<path d="M78.5961 149.554C78.5961 149.834 78.418 150.076 78.1636 150.178C78.2908 150.063 78.3799 149.885 78.3799 149.694C78.3799 149.325 78.0872 149.033 77.7183 149.033C77.6419 149.033 77.5656 149.045 77.4893 149.071C77.6038 148.969 77.7564 148.893 77.9346 148.893C78.3035 148.893 78.5961 149.185 78.5961 149.554Z" fill="#D8D8D8"/>
<path d="M82.9218 141.921C82.9218 142.201 82.7437 142.442 82.4893 142.544C82.6165 142.43 82.7055 142.251 82.7055 142.061C82.7055 141.692 82.4129 141.399 82.044 141.399C81.9676 141.399 81.8913 141.412 81.8149 141.437C81.9294 141.335 82.0821 141.259 82.2602 141.259C82.6292 141.259 82.9218 141.552 82.9218 141.921Z" fill="#D8D8D8"/>
<path d="M83.4692 143.422C83.4692 143.702 83.2911 143.943 83.0366 144.045C83.1638 143.931 83.2529 143.752 83.2529 143.562C83.2529 143.193 82.9603 142.9 82.5913 142.9C82.515 142.9 82.4386 142.913 82.3623 142.938C82.4768 142.836 82.6295 142.76 82.8076 142.76C83.1766 142.76 83.4692 143.053 83.4692 143.422Z" fill="#D8D8D8"/>
<path d="M82.6933 144.44C82.6933 144.72 82.5152 144.962 82.2607 145.064C82.388 144.949 82.477 144.771 82.477 144.58C82.477 144.211 82.1844 143.919 81.8154 143.919C81.7391 143.919 81.6628 143.931 81.5864 143.957C81.7009 143.855 81.8536 143.779 82.0317 143.779C82.4007 143.779 82.6933 144.071 82.6933 144.44Z" fill="#D8D8D8"/>
<path d="M83.8637 144.924C83.8637 145.204 83.6856 145.445 83.4312 145.547C83.5584 145.433 83.6474 145.255 83.6474 145.064C83.6474 144.695 83.3548 144.402 82.9858 144.402C82.9095 144.402 82.8332 144.415 82.7568 144.44C82.8713 144.339 83.024 144.262 83.2021 144.262C83.5711 144.262 83.8637 144.555 83.8637 144.924Z" fill="#D8D8D8"/>
<path d="M81.8154 145.724C81.8154 146.068 81.5991 146.361 81.2937 146.462C81.4464 146.322 81.5482 146.106 81.5482 145.877C81.5482 145.444 81.1919 145.088 80.7594 145.088C80.6576 145.088 80.5685 145.101 80.4922 145.139C80.6321 145.012 80.823 144.936 81.0265 144.936C81.4591 144.936 81.8154 145.292 81.8154 145.724Z" fill="#D8D8D8"/>
<path d="M80.4287 145.292C80.4287 145.636 80.2124 145.928 79.907 146.03C80.0597 145.89 80.1615 145.674 80.1615 145.445C80.1615 145.012 79.8052 144.656 79.3727 144.656C79.2709 144.656 79.1818 144.669 79.1055 144.707C79.2454 144.58 79.4363 144.503 79.6398 144.503C80.0724 144.503 80.4287 144.859 80.4287 145.292Z" fill="#D8D8D8"/>
<path d="M79.3598 146.666C79.3598 147.01 79.1435 147.302 78.8382 147.404C78.9908 147.264 79.0926 147.048 79.0926 146.819C79.0926 146.386 78.7364 146.03 78.3038 146.03C78.202 146.03 78.113 146.043 78.0366 146.081C78.1766 145.954 78.3674 145.877 78.571 145.877C79.0036 145.877 79.3598 146.234 79.3598 146.666Z" fill="#D8D8D8"/>
<path d="M76.4589 147.569C76.4589 147.913 76.2426 148.205 75.9373 148.307C76.09 148.167 76.1917 147.951 76.1917 147.722C76.1917 147.289 75.8355 146.933 75.4029 146.933C75.3011 146.933 75.2121 146.946 75.1357 146.984C75.2757 146.857 75.4665 146.781 75.6701 146.781C76.1027 146.781 76.4589 147.137 76.4589 147.569Z" fill="#D8D8D8"/>
<path d="M78.164 147.938C78.164 148.282 77.9477 148.575 77.6424 148.676C77.795 148.536 77.8968 148.32 77.8968 148.091C77.8968 147.659 77.5406 147.302 77.108 147.302C77.0062 147.302 76.9172 147.315 76.8408 147.353C76.9808 147.226 77.1716 147.15 77.3752 147.15C77.8078 147.15 78.164 147.506 78.164 147.938Z" fill="#D8D8D8"/>
<path d="M77.3749 149.555C77.3749 149.898 77.1587 150.191 76.8533 150.293C77.006 150.153 77.1078 149.937 77.1078 149.708C77.1078 149.275 76.7515 148.919 76.3189 148.919C76.2172 148.919 76.1281 148.932 76.0518 148.97C76.1917 148.842 76.3826 148.766 76.5861 148.766C77.0187 148.766 77.3749 149.122 77.3749 149.555Z" fill="#D8D8D8"/>
<path d="M81.4721 144.032C81.4721 144.376 81.2558 144.668 80.9505 144.77C81.1031 144.63 81.2049 144.414 81.2049 144.185C81.2049 143.752 80.8487 143.396 80.4161 143.396C80.3143 143.396 80.2253 143.409 80.1489 143.447C80.2889 143.32 80.4797 143.243 80.6833 143.243C81.1159 143.243 81.4721 143.6 81.4721 144.032Z" fill="#D8D8D8"/>
<path d="M79.9199 143.638C79.9199 143.982 79.7036 144.274 79.3982 144.376C79.5509 144.236 79.6527 144.02 79.6527 143.791C79.6527 143.358 79.2964 143.002 78.8639 143.002C78.7621 143.002 78.673 143.015 78.5967 143.053C78.7366 142.926 78.9275 142.849 79.131 142.849C79.5636 142.849 79.9199 143.206 79.9199 143.638Z" fill="#D8D8D8"/>
<path d="M78.9653 144.796C78.9653 145.14 78.749 145.432 78.4436 145.534C78.5963 145.394 78.6981 145.178 78.6981 144.949C78.6981 144.516 78.3419 144.16 77.9093 144.16C77.8075 144.16 77.7184 144.173 77.6421 144.211C77.782 144.084 77.9729 144.007 78.1765 144.007C78.609 144.007 78.9653 144.364 78.9653 144.796Z" fill="#D8D8D8"/>
<path d="M77.6293 146.297C77.6293 146.641 77.413 146.933 77.1077 147.035C77.2604 146.895 77.3622 146.679 77.3622 146.45C77.3622 146.017 77.0059 145.661 76.5733 145.661C76.4715 145.661 76.3825 145.674 76.3062 145.712C76.4461 145.585 76.6369 145.508 76.8405 145.508C77.2731 145.508 77.6293 145.865 77.6293 146.297Z" fill="#D8D8D8"/>
<path d="M77.2226 152.735C76.9173 152.875 76.561 152.799 76.332 152.557C76.5229 152.646 76.7519 152.646 76.9682 152.557C77.3626 152.379 77.5534 151.908 77.3753 151.514C77.3371 151.425 77.2863 151.348 77.2226 151.285C77.4008 151.361 77.5407 151.501 77.6298 151.692C77.8079 152.086 77.6298 152.557 77.2226 152.735Z" fill="#D8D8D8"/>
<path d="M75.1103 151.322C74.805 151.462 74.4487 151.386 74.2197 151.144C74.4106 151.233 74.6396 151.233 74.8559 151.144C75.2503 150.966 75.4411 150.495 75.263 150.101C75.2248 150.012 75.1739 149.935 75.1103 149.872C75.2885 149.948 75.4284 150.088 75.5175 150.279C75.6956 150.673 75.5175 151.144 75.1103 151.322Z" fill="#D8D8D8"/>
<path d="M78.291 143.269C78.291 143.613 78.0747 143.905 77.7693 144.007C77.922 143.867 78.0238 143.651 78.0238 143.422C78.0238 142.989 77.6675 142.633 77.235 142.633C77.1332 142.633 77.0441 142.646 76.9678 142.684C77.1077 142.557 77.2986 142.48 77.5021 142.48C77.9347 142.48 78.291 142.837 78.291 143.269Z" fill="#D8D8D8"/>
<path d="M74.665 147.061C74.665 147.405 74.4487 147.697 74.1433 147.799C74.296 147.659 74.3978 147.443 74.3978 147.214C74.3978 146.781 74.0416 146.425 73.609 146.425C73.5072 146.425 73.4181 146.438 73.3418 146.476C73.4817 146.349 73.6726 146.272 73.8762 146.272C74.3087 146.272 74.665 146.629 74.665 147.061Z" fill="#D8D8D8"/>
<path d="M77.1205 144.529C77.1205 144.873 76.9043 145.165 76.5989 145.267C76.7516 145.127 76.8534 144.911 76.8534 144.682C76.8534 144.249 76.4971 143.893 76.0645 143.893C75.9628 143.893 75.8737 143.906 75.7974 143.944C75.9373 143.817 76.1282 143.74 76.3317 143.74C76.7643 143.74 77.1205 144.096 77.1205 144.529Z" fill="#D8D8D8"/>
<path d="M75.9247 145.89C75.9247 146.233 75.7085 146.526 75.4031 146.628C75.5558 146.488 75.6576 146.271 75.6576 146.042C75.6576 145.61 75.3013 145.253 74.8687 145.253C74.767 145.253 74.6779 145.266 74.6016 145.304C74.7415 145.177 74.9324 145.101 75.1359 145.101C75.5685 145.101 75.9247 145.457 75.9247 145.89Z" fill="#D8D8D8"/>
<path d="M75.6577 143.816C75.6577 144.159 75.4414 144.452 75.136 144.554C75.2887 144.414 75.3905 144.198 75.3905 143.969C75.3905 143.536 75.0342 143.18 74.6017 143.18C74.4999 143.18 74.4108 143.193 74.3345 143.231C74.4744 143.103 74.6653 143.027 74.8688 143.027C75.3014 143.027 75.6577 143.383 75.6577 143.816Z" fill="#D8D8D8"/>
<path d="M78.9401 140.177C79.0419 140.508 78.9147 140.839 78.6602 141.03C78.762 140.852 78.8002 140.623 78.7365 140.406C78.6093 139.987 78.164 139.758 77.7569 139.872C77.6678 139.898 77.5788 139.936 77.5151 139.999C77.6169 139.834 77.7696 139.707 77.9604 139.643C78.3803 139.516 78.8256 139.758 78.9401 140.177Z" fill="#D8D8D8"/>
<path d="M77.1589 139.808C77.2606 140.139 77.1334 140.47 76.8789 140.661C76.9807 140.483 77.0189 140.254 76.9553 140.037C76.8281 139.617 76.3828 139.388 75.9756 139.503C75.8866 139.528 75.7975 139.567 75.7339 139.63C75.8357 139.465 75.9883 139.338 76.1792 139.274C76.599 139.147 77.0443 139.388 77.1589 139.808Z" fill="#D8D8D8"/>
<path d="M78.291 138.956C78.291 139.236 78.1129 139.478 77.8584 139.579C77.9856 139.465 78.0747 139.287 78.0747 139.096C78.0747 138.727 77.7821 138.434 77.4131 138.434C77.3368 138.434 77.2604 138.447 77.1841 138.473C77.2986 138.371 77.4513 138.294 77.6294 138.294C77.9983 138.294 78.291 138.587 78.291 138.956Z" fill="#D8D8D8"/>
<path d="M79.8051 139.466C79.8051 139.745 79.627 139.987 79.3726 140.089C79.4998 139.974 79.5888 139.796 79.5888 139.605C79.5888 139.237 79.2962 138.944 78.9273 138.944C78.8509 138.944 78.7746 138.957 78.6982 138.982C78.8127 138.88 78.9654 138.804 79.1435 138.804C79.5125 138.804 79.8051 139.097 79.8051 139.466Z" fill="#D8D8D8"/>
<path d="M76.7133 138.524C76.7133 138.804 76.5352 139.045 76.2808 139.147C76.408 139.033 76.497 138.854 76.497 138.664C76.497 138.295 76.2044 138.002 75.8355 138.002C75.7591 138.002 75.6828 138.015 75.6064 138.04C75.721 137.938 75.8736 137.862 76.0517 137.862C76.4207 137.862 76.7133 138.155 76.7133 138.524Z" fill="#D8D8D8"/>
<path d="M75.2627 138.193C75.2627 138.473 75.0845 138.715 74.8301 138.817C74.9573 138.702 75.0464 138.524 75.0464 138.333C75.0464 137.964 74.7537 137.672 74.3848 137.672C74.3084 137.672 74.2321 137.684 74.1558 137.71C74.2703 137.608 74.4229 137.532 74.6011 137.532C74.97 137.532 75.2627 137.824 75.2627 138.193Z" fill="#D8D8D8"/>
<path opacity="0.3" d="M83.9874 146.006C83.9874 151.526 79.522 156 74.0126 156C70.7296 156 67.8113 154.412 66 151.955C67.522 152.547 69.1321 152.875 70.7673 152.862C73.7107 152.837 76.6792 151.627 78.5912 149.396C80.5031 147.153 81.2201 143.876 80.1384 141.129C79.4591 139.377 78.1006 137.916 76.478 136.996C75.6855 136.555 74.8302 136.214 73.9497 136H74.0252C79.5346 136 84 140.474 84 145.994L83.9874 146.006Z" fill="#DBDBDB"/>
<path opacity="0.65" d="M73.5 125C73.3866 125 73.2984 126.966 73.2984 129.397C73.2984 131.829 73.3866 133.795 73.5 133.795C73.6134 133.795 73.7016 131.829 73.7016 129.397C73.7016 126.966 73.6134 125 73.5 125ZM68.1955 125.693C68.0821 125.718 68.5104 127.646 69.1404 129.99C69.7704 132.333 70.3626 134.211 70.476 134.185C70.5894 134.16 70.161 132.232 69.531 129.889C68.9136 127.57 68.3215 125.706 68.1955 125.693ZM78.8045 125.693C78.6911 125.693 78.099 127.57 77.469 129.889C76.839 132.232 76.4232 134.16 76.524 134.185C76.6374 134.211 77.2296 132.333 77.8596 129.99C78.4896 127.646 78.9053 125.718 78.8045 125.693ZM63.2563 127.734C63.1555 127.785 64.0627 129.536 65.2723 131.64C66.4819 133.744 67.5529 135.395 67.6411 135.344C67.7419 135.294 66.8347 133.543 65.6251 131.439C64.4407 129.385 63.3823 127.734 63.2563 127.734ZM83.7437 127.734C83.6177 127.734 82.5719 129.385 81.3749 131.439C80.1653 133.543 79.2581 135.294 79.3589 135.344C79.4597 135.395 80.5181 133.744 81.7277 131.64C82.9373 129.536 83.8445 127.785 83.7437 127.734ZM59.0101 130.985C58.9345 131.061 60.2575 132.522 61.9711 134.236C63.6847 135.949 65.1463 137.285 65.2219 137.197C65.2975 137.121 63.9745 135.659 62.2609 133.946C60.5977 132.283 59.1613 130.972 59.0227 130.972L59.0101 130.985ZM87.9773 130.985C87.8261 130.985 86.4023 132.295 84.7391 133.959C83.0255 135.672 81.6899 137.134 81.7781 137.209C81.8537 137.285 83.3153 135.962 85.0289 134.248C86.7425 132.535 88.0781 131.073 87.9899 130.998L87.9773 130.985ZM55.7594 135.231H55.7468C55.6964 135.332 57.347 136.39 59.4511 137.6C61.5553 138.809 63.3067 139.717 63.3571 139.616C63.4075 139.515 61.7569 138.457 59.6527 137.247C57.6494 136.088 55.961 135.206 55.7594 135.219V135.231ZM91.228 135.231C91.0012 135.231 89.3254 136.113 87.3473 137.26C85.2431 138.469 83.5925 139.54 83.6429 139.628C83.6933 139.729 85.4447 138.822 87.5489 137.612C89.653 136.403 91.3036 135.332 91.2532 135.244C91.2532 135.244 91.2532 135.244 91.228 135.244V135.231ZM53.7686 140.17C53.7686 140.17 53.7056 140.17 53.693 140.183C53.6678 140.296 55.5452 140.888 57.8888 141.518C60.2323 142.148 62.1601 142.564 62.1853 142.463C62.2105 142.35 60.3331 141.758 57.9896 141.128C55.9232 140.573 54.1466 140.17 53.7686 140.17ZM93.2314 140.17C92.8534 140.17 91.0642 140.573 89.0105 141.128C86.6669 141.758 84.7895 142.35 84.8147 142.463C84.8399 142.577 86.7677 142.148 89.1112 141.518C91.4548 140.888 93.3322 140.296 93.307 140.183C93.307 140.183 93.2818 140.17 93.2314 140.17ZM57.3344 145.286C54.9278 145.286 53 145.374 53 145.487C53 145.601 54.9656 145.689 57.3974 145.689C59.8291 145.689 61.7947 145.601 61.7947 145.487C61.7947 145.374 59.8291 145.286 57.3974 145.286H57.3344ZM89.5396 145.286C87.1331 145.286 85.2053 145.374 85.2053 145.487C85.2053 145.601 87.1709 145.689 89.6026 145.689C92.0344 145.689 94 145.601 94 145.487C94 145.374 92.0344 145.286 89.6026 145.286H89.5396ZM62.1223 148.499C61.7443 148.499 59.9551 148.902 57.9014 149.456C55.5578 150.086 53.6804 150.679 53.7056 150.792C53.7308 150.905 55.6586 150.477 58.0022 149.847C60.3457 149.217 62.2231 148.625 62.1979 148.511C62.1979 148.511 62.1727 148.499 62.1223 148.499ZM84.8903 148.499C84.8903 148.499 84.8273 148.499 84.8147 148.511C84.7895 148.625 86.6669 149.217 89.0105 149.847C91.354 150.477 93.2818 150.893 93.307 150.792C93.3322 150.679 91.4674 150.086 89.1112 149.456C87.0449 148.902 85.2683 148.499 84.8903 148.499ZM63.3445 151.334C63.1177 151.334 61.4293 152.228 59.4637 153.362C57.3596 154.572 55.709 155.643 55.7594 155.731C55.8098 155.832 57.5612 154.925 59.6653 153.715C61.7695 152.506 63.4201 151.435 63.3697 151.346C63.3697 151.346 63.3697 151.346 63.3445 151.346V151.334ZM83.6681 151.334H83.6429C83.5925 151.435 85.2431 152.493 87.3473 153.703C89.4514 154.912 91.2028 155.819 91.2532 155.719C91.3036 155.618 89.653 154.559 87.5489 153.35C85.5707 152.203 83.8823 151.334 83.6681 151.321V151.334ZM65.2093 153.766C65.0581 153.766 63.6343 155.063 61.9711 156.739C60.2575 158.453 58.9345 159.914 59.0101 159.99C59.0857 160.065 60.5473 158.742 62.2609 157.029C63.9745 155.315 65.2975 153.854 65.2219 153.778L65.2093 153.766ZM81.7907 153.766C81.7151 153.841 83.0381 155.303 84.7517 157.016C86.4653 158.73 87.9269 160.053 88.0025 159.977C88.0781 159.902 86.7551 158.44 85.0415 156.726C83.3783 155.063 81.9419 153.753 81.8033 153.753L81.7907 153.766ZM67.6411 155.63C67.5151 155.63 66.4693 157.281 65.2723 159.335C64.0627 161.439 63.1555 163.19 63.2563 163.241C63.3571 163.291 64.4155 161.64 65.6251 159.536C66.8347 157.432 67.7419 155.681 67.6411 155.63ZM79.3589 155.63C79.2581 155.681 80.1653 157.432 81.3749 159.536C82.5845 161.64 83.6555 163.291 83.7437 163.241C83.8445 163.19 82.9373 161.439 81.7277 159.335C80.5433 157.281 79.4849 155.63 79.3589 155.63ZM70.4634 156.802C70.35 156.802 69.7578 158.679 69.1278 160.998C68.4979 163.341 68.0821 165.269 68.1829 165.294C68.2963 165.32 68.8884 163.442 69.5184 161.099C70.1484 158.755 70.5642 156.827 70.4634 156.802ZM76.5366 156.802C76.4232 156.827 76.8516 158.755 77.4816 161.099C78.1116 163.442 78.7037 165.32 78.8171 165.294C78.9305 165.269 78.5022 163.341 77.8722 160.998C77.2548 158.679 76.6626 156.815 76.5366 156.802ZM73.5 157.205C73.3866 157.205 73.2984 159.171 73.2984 161.603C73.2984 164.034 73.3866 166 73.5 166C73.6134 166 73.7016 164.034 73.7016 161.603C73.7016 159.171 73.6134 157.205 73.5 157.205Z" fill="#CFCFCF"/>
<path d="M268 133C267.078 133 266.362 126.946 265.708 126.292C265.058 125.642 259 124.922 259 124C259 123.078 265.054 122.362 265.708 121.708C266.358 121.058 267.078 115 268 115C268.922 115 269.638 121.054 270.292 121.708C270.942 122.358 277 123.078 277 124C277 124.922 270.946 125.638 270.292 126.292C269.642 126.942 268.922 133 268 133Z" fill="#FDDB98"/>
<path d="M49.2522 66.5231C48.817 66.5231 48.477 63.6563 48.1687 63.3474C47.8605 63.0384 45 62.6977 45 62.2615C45 61.8254 47.8605 61.4846 48.1687 61.1757C48.477 60.8668 48.817 58 49.2522 58C49.6874 58 50.0274 60.8668 50.3356 61.1757C50.6439 61.4846 53.5044 61.8254 53.5044 62.2615C53.5044 62.6977 50.6439 63.0384 50.3356 63.3474C50.0274 63.6563 49.6874 66.5231 49.2522 66.5231Z" fill="#FFEB81"/>
<path d="M35.2522 161.523C34.817 161.523 34.477 158.656 34.1687 158.347C33.8605 158.038 31 157.698 31 157.262C31 156.825 33.8605 156.485 34.1687 156.176C34.477 155.867 34.817 153 35.2522 153C35.6874 153 36.0274 155.867 36.3356 156.176C36.6439 156.485 39.5044 156.825 39.5044 157.262C39.5044 157.698 36.6439 158.038 36.3356 158.347C36.0274 158.656 35.6874 161.523 35.2522 161.523Z" fill="#FDDB98"/>
<g clip-path="url(#clip4_2_3744)">
<path d="M215.621 98.3616H213.969V147.869H215.621V98.3616Z" fill="#E0E1E2"/>
<path d="M217.014 136.444H213.208V159.294H217.014V136.444Z" fill="#3C3C3B"/>
<path d="M209.942 130.351C209.942 128.836 208.838 127.579 207.384 127.343C207.103 127.297 206.897 127.054 206.897 126.772V124.852C206.897 124.525 207.163 124.266 207.483 124.266H211.373C211.784 124.266 212.066 124.677 211.921 125.058L209.934 130.359L209.942 130.351Z" fill="#E0E1E2"/>
<path d="M212.226 124.258H209.942V170.719H212.226V124.258Z" fill="#E0E1E2"/>
<path d="M210.178 127.305H202.543C201.134 127.305 200 125.941 200 124.258C200 122.575 201.142 121.211 202.543 121.211H210.178C211.586 121.211 212.72 122.575 212.72 124.258C212.72 125.941 211.579 127.305 210.178 127.305Z" fill="#ADD3EB"/>
<path d="M210.163 159.294H206.356V182.144H210.163V159.294Z" fill="#3C3C3B"/>
<path d="M223.104 118.926C223.104 117.243 224.467 115.88 226.149 115.88V112.833H220.82L223.104 118.926Z" fill="#E0E1E2"/>
<path d="M215.621 104.942V104.143C215.621 103.061 215.651 101.492 216.42 101.492V100.532H213.969L215.621 104.935V104.942Z" fill="#D9D9D9"/>
<path d="M223.104 112.833H220.82V159.294H223.104V112.833Z" fill="#E0E1E2"/>
<path d="M220.82 115.88H229.955C231.637 115.88 233 114.517 233 112.833C233 111.15 231.637 109.787 229.955 109.787H220.82C219.138 109.787 217.775 111.15 217.775 112.833C217.775 114.517 219.138 115.88 220.82 115.88Z" fill="#C4C4C4"/>
<path d="M223.865 147.869H220.059V170.719H223.865V147.869Z" fill="#3C3C3B"/>
<path d="M223.104 140.367H221.582V182.258H223.104L229.186 171.709C230.184 169.972 230.716 168.007 230.716 166.012V156.613C230.716 154.61 230.191 152.645 229.186 150.916L223.104 140.367Z" fill="#EDAF6B"/>
<path d="M207.453 158.601C207.156 158.601 206.859 158.654 206.6 158.761L201.363 160.894C200.838 161.107 200.51 161.503 200.51 161.937V176.599C200.51 177.026 200.838 177.422 201.363 177.642L206.6 179.775C206.859 179.882 207.156 179.935 207.453 179.935C208.397 179.935 209.158 179.394 209.158 178.732V159.804C209.158 159.142 208.397 158.601 207.453 158.601Z" fill="#E29549"/>
<path d="M205.595 133.588V182.258C205.595 183.774 206.821 185 208.336 185H221.886C223.401 185 224.626 183.774 224.626 182.258V133.588H205.595Z" fill="#FFD4A1"/>
<path d="M205.595 135.492H224.626V133.025C224.626 132.286 224.025 131.684 223.287 131.684H206.943C206.204 131.684 205.603 132.286 205.603 133.025V135.492H205.595Z" fill="#F9B46E"/>
<path d="M216.61 100.281C216.473 96.8535 218.11 97.1658 219.191 96.9296C220.797 96.5793 228.174 96.9449 230.48 95.9166C232.49 95.0103 232.528 93.9516 232.246 90.4708C231.988 87.2566 231.63 86.5102 229.574 86.0913C226.872 85.5353 221.345 87.8507 219.168 89.1303C216.999 90.4099 213.246 92.7405 213.337 95.3454C213.406 97.3409 213.558 100.677 213.581 101.21C213.604 101.743 214.106 102.193 214.441 102.2C215.263 102.223 216.687 102.482 216.618 100.289L216.61 100.281Z" fill="#ADD3EB"/>
<path opacity="0.74" d="M224.573 92.8775C225.936 92.6643 227.176 92.4358 228.638 92.093C228.904 92.0321 229.681 91.7503 229.681 92.4739C229.681 93.0984 228.767 93.2888 226.567 93.6544C224.375 94.02 223.812 93.9438 223.743 93.5554C223.675 93.167 224.131 92.9461 224.573 92.8775Z" fill="white"/>
<path opacity="0.74" d="M224.147 90.3719C225.509 90.1587 226.75 89.9302 228.212 89.5874C228.478 89.5265 229.255 89.2447 229.255 89.9682C229.255 90.5928 228.341 90.7832 226.141 91.1488C223.949 91.5144 223.385 91.4382 223.317 91.0498C223.248 90.6613 223.705 90.4405 224.147 90.3719Z" fill="white"/>
<path opacity="0.74" d="M226.225 113.153C227.458 113.206 228.592 113.222 229.932 113.176C230.183 113.168 230.906 113.062 230.785 113.694C230.678 114.242 229.841 114.25 227.839 114.181C225.852 114.12 225.365 113.953 225.38 113.595C225.387 113.237 225.829 113.123 226.232 113.145L226.225 113.153Z" fill="white"/>
<path opacity="0.74" d="M226.225 111.409C227.458 111.462 228.592 111.477 229.932 111.432C230.183 111.424 230.906 111.317 230.785 111.95C230.678 112.498 229.841 112.506 227.839 112.437C225.852 112.376 225.365 112.209 225.38 111.851C225.387 111.493 225.829 111.378 226.232 111.401L226.225 111.409Z" fill="white"/>
<path opacity="0.74" d="M203.738 124.776C204.971 124.829 206.105 124.844 207.445 124.799C207.696 124.791 208.42 124.684 208.298 125.317C208.191 125.865 207.354 125.873 205.352 125.804C203.365 125.743 202.878 125.576 202.893 125.218C202.901 124.86 203.342 124.745 203.746 124.768L203.738 124.776Z" fill="white"/>
<path opacity="0.74" d="M203.738 123.032C204.971 123.085 206.105 123.1 207.445 123.055C207.696 123.047 208.42 122.94 208.298 123.572C208.191 124.121 207.354 124.128 205.352 124.06C203.365 123.999 202.878 123.831 202.893 123.473C202.901 123.115 203.342 123.001 203.746 123.024L203.738 123.032Z" fill="white"/>
</g>
<defs>
<clipPath id="clip0_2_3744">
<rect width="72" height="37" fill="white" transform="translate(209 2)"/>
</clipPath>
<clipPath id="clip1_2_3744">
<rect width="49" height="25" fill="white" transform="translate(4 10)"/>
</clipPath>
<clipPath id="clip2_2_3744">
<rect width="37" height="19" fill="white" transform="translate(252 67)"/>
</clipPath>
<clipPath id="clip3_2_3744">
<rect width="35" height="18" fill="white" transform="translate(0 87)"/>
</clipPath>
<clipPath id="clip4_2_3744">
<rect width="33" height="99" fill="white" transform="translate(200 86)"/>
</clipPath>
</defs>
</svg>
